<svg width="58" height="25" viewBox="0 0 58 25" fill="none" xmlns="http://www.w3.org/2000/svg">
<rect width="58" height="25" rx="12.5" fill="#00952A" fill-opacity="0.12"/>
<rect x="0.5" y="0.5" width="57" height="24" rx="12" stroke="#00952A" stroke-opacity="0.2"/>
<path d="M15.928 15.296H12.436L11.836 17H10.408L13.396 8.648H14.98L17.968 17H16.528L15.928 15.296ZM15.544 14.18L14.188 10.304L12.82 14.18H15.544ZM18.8112 13.688C18.8112 13.008 18.9472 12.412 19.2192 11.9C19.4992 11.38 19.8832 10.98 20.3712 10.7C20.8592 10.42 21.4192 10.28 22.0512 10.28C22.8512 10.28 23.5112 10.472 24.0312 10.856C24.5592 11.232 24.9152 11.772 25.0992 12.476H23.6232C23.5032 12.148 23.3112 11.892 23.0472 11.708C22.7832 11.524 22.4512 11.432 22.0512 11.432C21.4912 11.432 21.0432 11.632 20.7072 12.032C20.3792 12.424 20.2152 12.976 20.2152 13.688C20.2152 14.4 20.3792 14.956 20.7072 15.356C21.0432 15.756 21.4912 15.956 22.0512 15.956C22.8432 15.956 23.3672 15.608 23.6232 14.912H25.0992C24.9072 15.584 24.5472 16.12 24.0192 16.52C23.4912 16.912 22.8352 17.108 22.0512 17.108C21.4192 17.108 20.8592 16.968 20.3712 16.688C19.8832 16.4 19.4992 16 19.2192 15.488C18.9472 14.968 18.8112 14.368 18.8112 13.688ZM28.0585 11.504V15.164C28.0585 15.412 28.1145 15.592 28.2265 15.704C28.3465 15.808 28.5465 15.86 28.8265 15.86H29.6665V17H28.5865C27.9705 17 27.4985 16.856 27.1705 16.568C26.8425 16.28 26.6785 15.812 26.6785 15.164V11.504H25.8985V10.388H26.6785V8.744H28.0585V10.388H29.6665V11.504H28.0585ZM31.6233 9.512C31.3753 9.512 31.1673 9.428 30.9993 9.26C30.8313 9.092 30.7473 8.884 30.7473 8.636C30.7473 8.388 30.8313 8.18 30.9993 8.012C31.1673 7.844 31.3753 7.76 31.6233 7.76C31.8633 7.76 32.0673 7.844 32.2353 8.012C32.4033 8.18 32.4873 8.388 32.4873 8.636C32.4873 8.884 32.4033 9.092 32.2353 9.26C32.0673 9.428 31.8633 9.512 31.6233 9.512ZM32.2953 10.388V17H30.9273V10.388H32.2953ZM36.6474 15.776L38.5194 10.388H39.9714L37.4514 17H35.8194L33.3114 10.388H34.7754L36.6474 15.776ZM47.0655 13.532C47.0655 13.78 47.0495 14.004 47.0175 14.204H41.9655C42.0055 14.732 42.2015 15.156 42.5535 15.476C42.9055 15.796 43.3375 15.956 43.8495 15.956C44.5855 15.956 45.1055 15.648 45.4095 15.032H46.8855C46.6855 15.64 46.3215 16.14 45.7935 16.532C45.2735 16.916 44.6255 17.108 43.8495 17.108C43.2175 17.108 42.6495 16.968 42.1455 16.688C41.6495 16.4 41.2575 16 40.9695 15.488C40.6895 14.968 40.5495 14.368 40.5495 13.688C40.5495 13.008 40.6855 12.412 40.9575 11.9C41.2375 11.38 41.6255 10.98 42.1215 10.7C42.6255 10.42 43.2015 10.28 43.8495 10.28C44.4735 10.28 45.0295 10.416 45.5175 10.688C46.0055 10.96 46.3855 11.344 46.6575 11.84C46.9295 12.328 47.0655 12.892 47.0655 13.532ZM45.6375 13.1C45.6295 12.596 45.4495 12.192 45.0975 11.888C44.7455 11.584 44.3095 11.432 43.7895 11.432C43.3175 11.432 42.9135 11.584 42.5775 11.888C42.2415 12.184 42.0415 12.588 41.9775 13.1H45.6375Z" fill="#00952A"/>
</svg>
