<svg width="76" height="25" viewBox="0 0 76 25" fill="none" xmlns="http://www.w3.org/2000/svg">
<rect x="0.5" y="0.5" width="75" height="24" rx="12" fill="#ECEEF2"/>
<rect x="0.5" y="0.5" width="75" height="24" rx="12" stroke="#D9DBE1"/>
<path d="M15.232 17L13.312 13.664H12.268V17H10.9V8.66H13.78C14.42 8.66 14.96 8.772 15.4 8.996C15.848 9.22 16.18 9.52 16.396 9.896C16.62 10.272 16.732 10.692 16.732 11.156C16.732 11.7 16.572 12.196 16.252 12.644C15.94 13.084 15.456 13.384 14.8 13.544L16.864 17H15.232ZM12.268 12.572H13.78C14.292 12.572 14.676 12.444 14.932 12.188C15.196 11.932 15.328 11.588 15.328 11.156C15.328 10.724 15.2 10.388 14.944 10.148C14.688 9.9 14.3 9.776 13.78 9.776H12.268V12.572ZM24.542 13.532C24.542 13.78 24.526 14.004 24.494 14.204H19.442C19.482 14.732 19.678 15.156 20.03 15.476C20.382 15.796 20.814 15.956 21.326 15.956C22.062 15.956 22.582 15.648 22.886 15.032H24.362C24.162 15.64 23.798 16.14 23.27 16.532C22.75 16.916 22.102 17.108 21.326 17.108C20.694 17.108 20.126 16.968 19.622 16.688C19.126 16.4 18.734 16 18.446 15.488C18.166 14.968 18.026 14.368 18.026 13.688C18.026 13.008 18.162 12.412 18.434 11.9C18.714 11.38 19.102 10.98 19.598 10.7C20.102 10.42 20.678 10.28 21.326 10.28C21.95 10.28 22.506 10.416 22.994 10.688C23.482 10.96 23.862 11.344 24.134 11.84C24.406 12.328 24.542 12.892 24.542 13.532ZM23.114 13.1C23.106 12.596 22.926 12.192 22.574 11.888C22.222 11.584 21.786 11.432 21.266 11.432C20.794 11.432 20.39 11.584 20.054 11.888C19.718 12.184 19.518 12.588 19.454 13.1H23.114ZM27.2563 8.12V17H25.8883V8.12H27.2563ZM35.1123 13.532C35.1123 13.78 35.0963 14.004 35.0643 14.204H30.0123C30.0523 14.732 30.2483 15.156 30.6003 15.476C30.9523 15.796 31.3843 15.956 31.8963 15.956C32.6323 15.956 33.1523 15.648 33.4563 15.032H34.9323C34.7323 15.64 34.3683 16.14 33.8403 16.532C33.3203 16.916 32.6723 17.108 31.8963 17.108C31.2643 17.108 30.6963 16.968 30.1923 16.688C29.6963 16.4 29.3043 16 29.0163 15.488C28.7363 14.968 28.5963 14.368 28.5963 13.688C28.5963 13.008 28.7323 12.412 29.0043 11.9C29.2843 11.38 29.6723 10.98 30.1683 10.7C30.6723 10.42 31.2483 10.28 31.8963 10.28C32.5203 10.28 33.0763 10.416 33.5643 10.688C34.0523 10.96 34.4323 11.344 34.7043 11.84C34.9763 12.328 35.1123 12.892 35.1123 13.532ZM33.6843 13.1C33.6763 12.596 33.4963 12.192 33.1443 11.888C32.7923 11.584 32.3563 11.432 31.8363 11.432C31.3643 11.432 30.9603 11.584 30.6243 11.888C30.2883 12.184 30.0883 12.588 30.0243 13.1H33.6843ZM36.0026 13.664C36.0026 13 36.1386 12.412 36.4106 11.9C36.6906 11.388 37.0666 10.992 37.5386 10.712C38.0186 10.424 38.5466 10.28 39.1226 10.28C39.6426 10.28 40.0946 10.384 40.4786 10.592C40.8706 10.792 41.1826 11.044 41.4146 11.348V10.388H42.7946V17H41.4146V16.016C41.1826 16.328 40.8666 16.588 40.4666 16.796C40.0666 17.004 39.6106 17.108 39.0986 17.108C38.5306 17.108 38.0106 16.964 37.5386 16.676C37.0666 16.38 36.6906 15.972 36.4106 15.452C36.1386 14.924 36.0026 14.328 36.0026 13.664ZM41.4146 13.688C41.4146 13.232 41.3186 12.836 41.1266 12.5C40.9426 12.164 40.6986 11.908 40.3946 11.732C40.0906 11.556 39.7626 11.468 39.4106 11.468C39.0586 11.468 38.7306 11.556 38.4266 11.732C38.1226 11.9 37.8746 12.152 37.6826 12.488C37.4986 12.816 37.4066 13.208 37.4066 13.664C37.4066 14.12 37.4986 14.52 37.6826 14.864C37.8746 15.208 38.1226 15.472 38.4266 15.656C38.7386 15.832 39.0666 15.92 39.4106 15.92C39.7626 15.92 40.0906 15.832 40.3946 15.656C40.6986 15.48 40.9426 15.224 41.1266 14.888C41.3186 14.544 41.4146 14.144 41.4146 13.688ZM46.9914 17.108C46.4714 17.108 46.0034 17.016 45.5874 16.832C45.1794 16.64 44.8554 16.384 44.6154 16.064C44.3754 15.736 44.2474 15.372 44.2314 14.972H45.6474C45.6714 15.252 45.8034 15.488 46.0434 15.68C46.2914 15.864 46.5994 15.956 46.9674 15.956C47.3514 15.956 47.6474 15.884 47.8554 15.74C48.0714 15.588 48.1794 15.396 48.1794 15.164C48.1794 14.916 48.0594 14.732 47.8194 14.612C47.5874 14.492 47.2154 14.36 46.7034 14.216C46.2074 14.08 45.8034 13.948 45.4914 13.82C45.1794 13.692 44.9074 13.496 44.6754 13.232C44.4514 12.968 44.3394 12.62 44.3394 12.188C44.3394 11.836 44.4434 11.516 44.6514 11.228C44.8594 10.932 45.1554 10.7 45.5394 10.532C45.9314 10.364 46.3794 10.28 46.8834 10.28C47.6354 10.28 48.2394 10.472 48.6954 10.856C49.1594 11.232 49.4074 11.748 49.4394 12.404H48.0714C48.0474 12.108 47.9274 11.872 47.7114 11.696C47.4954 11.52 47.2034 11.432 46.8354 11.432C46.4754 11.432 46.1994 11.5 46.0074 11.636C45.8154 11.772 45.7194 11.952 45.7194 12.176C45.7194 12.352 45.7834 12.5 45.9114 12.62C46.0394 12.74 46.1954 12.836 46.3794 12.908C46.5634 12.972 46.8354 13.056 47.1954 13.16C47.6754 13.288 48.0674 13.42 48.3714 13.556C48.6834 13.684 48.9514 13.876 49.1754 14.132C49.3994 14.388 49.5154 14.728 49.5234 15.152C49.5234 15.528 49.4194 15.864 49.2114 16.16C49.0034 16.456 48.7074 16.688 48.3234 16.856C47.9474 17.024 47.5034 17.108 46.9914 17.108ZM57.0616 13.532C57.0616 13.78 57.0456 14.004 57.0136 14.204H51.9616C52.0016 14.732 52.1976 15.156 52.5496 15.476C52.9016 15.796 53.3336 15.956 53.8456 15.956C54.5816 15.956 55.1016 15.648 55.4056 15.032H56.8816C56.6816 15.64 56.3176 16.14 55.7896 16.532C55.2696 16.916 54.6216 17.108 53.8456 17.108C53.2136 17.108 52.6456 16.968 52.1416 16.688C51.6456 16.4 51.2536 16 50.9656 15.488C50.6856 14.968 50.5456 14.368 50.5456 13.688C50.5456 13.008 50.6816 12.412 50.9536 11.9C51.2336 11.38 51.6216 10.98 52.1176 10.7C52.6216 10.42 53.1976 10.28 53.8456 10.28C54.4696 10.28 55.0256 10.416 55.5136 10.688C56.0016 10.96 56.3816 11.344 56.6536 11.84C56.9256 12.328 57.0616 12.892 57.0616 13.532ZM55.6336 13.1C55.6256 12.596 55.4456 12.192 55.0936 11.888C54.7416 11.584 54.3056 11.432 53.7856 11.432C53.3136 11.432 52.9096 11.584 52.5736 11.888C52.2376 12.184 52.0376 12.588 51.9736 13.1H55.6336ZM57.9518 13.664C57.9518 13 58.0878 12.412 58.3598 11.9C58.6398 11.388 59.0158 10.992 59.4878 10.712C59.9678 10.424 60.4998 10.28 61.0838 10.28C61.5158 10.28 61.9398 10.376 62.3558 10.568C62.7798 10.752 63.1158 11 63.3638 11.312V8.12H64.7438V17H63.3638V16.004C63.1398 16.324 62.8278 16.588 62.4278 16.796C62.0358 17.004 61.5838 17.108 61.0718 17.108C60.4958 17.108 59.9678 16.964 59.4878 16.676C59.0158 16.38 58.6398 15.972 58.3598 15.452C58.0878 14.924 57.9518 14.328 57.9518 13.664ZM63.3638 13.688C63.3638 13.232 63.2678 12.836 63.0758 12.5C62.8918 12.164 62.6478 11.908 62.3438 11.732C62.0398 11.556 61.7118 11.468 61.3598 11.468C61.0078 11.468 60.6798 11.556 60.3758 11.732C60.0718 11.9 59.8238 12.152 59.6318 12.488C59.4478 12.816 59.3558 13.208 59.3558 13.664C59.3558 14.12 59.4478 14.52 59.6318 14.864C59.8238 15.208 60.0718 15.472 60.3758 15.656C60.6878 15.832 61.0158 15.92 61.3598 15.92C61.7118 15.92 62.0398 15.832 62.3438 15.656C62.6478 15.48 62.8918 15.224 63.0758 14.888C63.2678 14.544 63.3638 14.144 63.3638 13.688Z" fill="#71798E"/>
</svg>
