<svg width="136" height="25" viewBox="0 0 136 25" fill="none" xmlns="http://www.w3.org/2000/svg">
<rect width="136" height="25" rx="12.5" fill="#2684FF" fill-opacity="0.12"/>
<rect x="0.5" y="0.5" width="135" height="24" rx="12" stroke="#2684FF" stroke-opacity="0.2"/>
<path d="M15.928 15.296H12.436L11.836 17H10.408L13.396 8.648H14.98L17.968 17H16.528L15.928 15.296ZM15.544 14.18L14.188 10.304L12.82 14.18H15.544ZM21.8232 15.776L23.6952 10.388H25.1472L22.6272 17H20.9952L18.4872 10.388H19.9512L21.8232 15.776ZM25.7253 13.664C25.7253 13 25.8613 12.412 26.1333 11.9C26.4133 11.388 26.7893 10.992 27.2613 10.712C27.7413 10.424 28.2693 10.28 28.8453 10.28C29.3653 10.28 29.8173 10.384 30.2013 10.592C30.5933 10.792 30.9053 11.044 31.1373 11.348V10.388H32.5173V17H31.1373V16.016C30.9053 16.328 30.5893 16.588 30.1893 16.796C29.7893 17.004 29.3333 17.108 28.8213 17.108C28.2533 17.108 27.7333 16.964 27.2613 16.676C26.7893 16.38 26.4133 15.972 26.1333 15.452C25.8613 14.924 25.7253 14.328 25.7253 13.664ZM31.1373 13.688C31.1373 13.232 31.0413 12.836 30.8493 12.5C30.6653 12.164 30.4213 11.908 30.1173 11.732C29.8133 11.556 29.4853 11.468 29.1333 11.468C28.7813 11.468 28.4533 11.556 28.1493 11.732C27.8453 11.9 27.5973 12.152 27.4053 12.488C27.2213 12.816 27.1293 13.208 27.1293 13.664C27.1293 14.12 27.2213 14.52 27.4053 14.864C27.5973 15.208 27.8453 15.472 28.1493 15.656C28.4613 15.832 28.7893 15.92 29.1333 15.92C29.4853 15.92 29.8133 15.832 30.1173 15.656C30.4213 15.48 30.6653 15.224 30.8493 14.888C31.0413 14.544 31.1373 14.144 31.1373 13.688ZM35.0101 9.512C34.7621 9.512 34.5541 9.428 34.3861 9.26C34.2181 9.092 34.1341 8.884 34.1341 8.636C34.1341 8.388 34.2181 8.18 34.3861 8.012C34.5541 7.844 34.7621 7.76 35.0101 7.76C35.2501 7.76 35.4541 7.844 35.6221 8.012C35.7901 8.18 35.8741 8.388 35.8741 8.636C35.8741 8.884 35.7901 9.092 35.6221 9.26C35.4541 9.428 35.2501 9.512 35.0101 9.512ZM35.6821 10.388V17H34.3141V10.388H35.6821ZM38.8461 8.12V17H37.4781V8.12H38.8461ZM40.1862 13.664C40.1862 13 40.3222 12.412 40.5942 11.9C40.8742 11.388 41.2502 10.992 41.7222 10.712C42.2022 10.424 42.7302 10.28 43.3062 10.28C43.8262 10.28 44.2782 10.384 44.6622 10.592C45.0542 10.792 45.3662 11.044 45.5982 11.348V10.388H46.9782V17H45.5982V16.016C45.3662 16.328 45.0502 16.588 44.6502 16.796C44.2502 17.004 43.7942 17.108 43.2822 17.108C42.7142 17.108 42.1942 16.964 41.7222 16.676C41.2502 16.38 40.8742 15.972 40.5942 15.452C40.3222 14.924 40.1862 14.328 40.1862 13.664ZM45.5982 13.688C45.5982 13.232 45.5022 12.836 45.3102 12.5C45.1262 12.164 44.8822 11.908 44.5782 11.732C44.2742 11.556 43.9462 11.468 43.5942 11.468C43.2422 11.468 42.9142 11.556 42.6102 11.732C42.3062 11.9 42.0582 12.152 41.8662 12.488C41.6822 12.816 41.5902 13.208 41.5902 13.664C41.5902 14.12 41.6822 14.52 41.8662 14.864C42.0582 15.208 42.3062 15.472 42.6102 15.656C42.9222 15.832 43.2502 15.92 43.5942 15.92C43.9462 15.92 44.2742 15.832 44.5782 15.656C44.8822 15.48 45.1262 15.224 45.3102 14.888C45.5022 14.544 45.5982 14.144 45.5982 13.688ZM50.143 11.372C50.375 11.052 50.691 10.792 51.091 10.592C51.499 10.384 51.951 10.28 52.447 10.28C53.031 10.28 53.559 10.42 54.031 10.7C54.503 10.98 54.875 11.38 55.147 11.9C55.419 12.412 55.555 13 55.555 13.664C55.555 14.328 55.419 14.924 55.147 15.452C54.875 15.972 54.499 16.38 54.019 16.676C53.547 16.964 53.023 17.108 52.447 17.108C51.935 17.108 51.479 17.008 51.079 16.808C50.687 16.608 50.375 16.352 50.143 16.04V17H48.775V8.12H50.143V11.372ZM54.163 13.664C54.163 13.208 54.067 12.816 53.875 12.488C53.691 12.152 53.443 11.9 53.131 11.732C52.827 11.556 52.499 11.468 52.147 11.468C51.803 11.468 51.475 11.556 51.163 11.732C50.859 11.908 50.611 12.164 50.419 12.5C50.235 12.836 50.143 13.232 50.143 13.688C50.143 14.144 50.235 14.544 50.419 14.888C50.611 15.224 50.859 15.48 51.163 15.656C51.475 15.832 51.803 15.92 52.147 15.92C52.499 15.92 52.827 15.832 53.131 15.656C53.443 15.472 53.691 15.208 53.875 14.864C54.067 14.52 54.163 14.12 54.163 13.664ZM58.2758 8.12V17H56.9078V8.12H58.2758ZM66.1319 13.532C66.1319 13.78 66.1159 14.004 66.0839 14.204H61.0319C61.0719 14.732 61.2679 15.156 61.6199 15.476C61.9719 15.796 62.4039 15.956 62.9159 15.956C63.6519 15.956 64.1719 15.648 64.4759 15.032H65.9519C65.7519 15.64 65.3879 16.14 64.8599 16.532C64.3399 16.916 63.6919 17.108 62.9159 17.108C62.2839 17.108 61.7159 16.968 61.2119 16.688C60.7159 16.4 60.3239 16 60.0359 15.488C59.7559 14.968 59.6159 14.368 59.6159 13.688C59.6159 13.008 59.7519 12.412 60.0239 11.9C60.3039 11.38 60.6919 10.98 61.1879 10.7C61.6919 10.42 62.2679 10.28 62.9159 10.28C63.5399 10.28 64.0959 10.416 64.5839 10.688C65.0719 10.96 65.4519 11.344 65.7239 11.84C65.9959 12.328 66.1319 12.892 66.1319 13.532ZM64.7039 13.1C64.6959 12.596 64.5159 12.192 64.1639 11.888C63.8119 11.584 63.3759 11.432 62.8559 11.432C62.3839 11.432 61.9799 11.584 61.6439 11.888C61.3079 12.184 61.1079 12.588 61.0439 13.1H64.7039ZM72.1913 11.504V15.164C72.1913 15.412 72.2473 15.592 72.3593 15.704C72.4793 15.808 72.6793 15.86 72.9593 15.86H73.7993V17H72.7193C72.1033 17 71.6313 16.856 71.3033 16.568C70.9753 16.28 70.8113 15.812 70.8113 15.164V11.504H70.0313V10.388H70.8113V8.744H72.1913V10.388H73.7993V11.504H72.1913ZM77.9282 17.108C77.3042 17.108 76.7402 16.968 76.2362 16.688C75.7322 16.4 75.3362 16 75.0482 15.488C74.7602 14.968 74.6162 14.368 74.6162 13.688C74.6162 13.016 74.7642 12.42 75.0602 11.9C75.3562 11.38 75.7602 10.98 76.2722 10.7C76.7842 10.42 77.3562 10.28 77.9882 10.28C78.6202 10.28 79.1922 10.42 79.7042 10.7C80.2162 10.98 80.6202 11.38 80.9162 11.9C81.2122 12.42 81.3602 13.016 81.3602 13.688C81.3602 14.36 81.2082 14.956 80.9042 15.476C80.6002 15.996 80.1842 16.4 79.6562 16.688C79.1362 16.968 78.5602 17.108 77.9282 17.108ZM77.9282 15.92C78.2802 15.92 78.6082 15.836 78.9122 15.668C79.2242 15.5 79.4762 15.248 79.6682 14.912C79.8602 14.576 79.9562 14.168 79.9562 13.688C79.9562 13.208 79.8642 12.804 79.6802 12.476C79.4962 12.14 79.2522 11.888 78.9482 11.72C78.6442 11.552 78.3162 11.468 77.9642 11.468C77.6122 11.468 77.2842 11.552 76.9802 11.72C76.6842 11.888 76.4482 12.14 76.2722 12.476C76.0962 12.804 76.0082 13.208 76.0082 13.688C76.0082 14.4 76.1882 14.952 76.5482 15.344C76.9162 15.728 77.3762 15.92 77.9282 15.92ZM91.8177 10.388V17H90.4497V16.22C90.2337 16.492 89.9497 16.708 89.5977 16.868C89.2537 17.02 88.8857 17.096 88.4937 17.096C87.9737 17.096 87.5057 16.988 87.0897 16.772C86.6817 16.556 86.3577 16.236 86.1177 15.812C85.8857 15.388 85.7697 14.876 85.7697 14.276V10.388H87.1257V14.072C87.1257 14.664 87.2737 15.12 87.5697 15.44C87.8657 15.752 88.2697 15.908 88.7817 15.908C89.2937 15.908 89.6977 15.752 89.9937 15.44C90.2977 15.12 90.4497 14.664 90.4497 14.072V10.388H91.8177ZM96.9587 10.28C97.4787 10.28 97.9427 10.388 98.3507 10.604C98.7667 10.82 99.0907 11.14 99.3227 11.564C99.5547 11.988 99.6707 12.5 99.6707 13.1V17H98.3147V13.304C98.3147 12.712 98.1667 12.26 97.8707 11.948C97.5747 11.628 97.1707 11.468 96.6587 11.468C96.1467 11.468 95.7387 11.628 95.4347 11.948C95.1387 12.26 94.9907 12.712 94.9907 13.304V17H93.6227V10.388H94.9907V11.144C95.2147 10.872 95.4987 10.66 95.8427 10.508C96.1947 10.356 96.5667 10.28 96.9587 10.28ZM102.784 8.12V17H101.416V8.12H102.784ZM107.448 17.108C106.824 17.108 106.26 16.968 105.756 16.688C105.252 16.4 104.856 16 104.568 15.488C104.28 14.968 104.136 14.368 104.136 13.688C104.136 13.016 104.284 12.42 104.58 11.9C104.876 11.38 105.28 10.98 105.792 10.7C106.304 10.42 106.876 10.28 107.508 10.28C108.14 10.28 108.712 10.42 109.224 10.7C109.736 10.98 110.14 11.38 110.436 11.9C110.732 12.42 110.88 13.016 110.88 13.688C110.88 14.36 110.728 14.956 110.424 15.476C110.12 15.996 109.704 16.4 109.176 16.688C108.656 16.968 108.08 17.108 107.448 17.108ZM107.448 15.92C107.8 15.92 108.128 15.836 108.432 15.668C108.744 15.5 108.996 15.248 109.188 14.912C109.38 14.576 109.476 14.168 109.476 13.688C109.476 13.208 109.384 12.804 109.2 12.476C109.016 12.14 108.772 11.888 108.468 11.72C108.164 11.552 107.836 11.468 107.484 11.468C107.132 11.468 106.804 11.552 106.5 11.72C106.204 11.888 105.968 12.14 105.792 12.476C105.616 12.804 105.528 13.208 105.528 13.688C105.528 14.4 105.708 14.952 106.068 15.344C106.436 15.728 106.896 15.92 107.448 15.92ZM111.776 13.688C111.776 13.008 111.912 12.412 112.184 11.9C112.464 11.38 112.848 10.98 113.336 10.7C113.824 10.42 114.384 10.28 115.016 10.28C115.816 10.28 116.476 10.472 116.996 10.856C117.524 11.232 117.88 11.772 118.064 12.476H116.588C116.468 12.148 116.276 11.892 116.012 11.708C115.748 11.524 115.416 11.432 115.016 11.432C114.456 11.432 114.008 11.632 113.672 12.032C113.344 12.424 113.18 12.976 113.18 13.688C113.18 14.4 113.344 14.956 113.672 15.356C114.008 15.756 114.456 15.956 115.016 15.956C115.808 15.956 116.332 15.608 116.588 14.912H118.064C117.872 15.584 117.512 16.12 116.984 16.52C116.456 16.912 115.8 17.108 115.016 17.108C114.384 17.108 113.824 16.968 113.336 16.688C112.848 16.4 112.464 16 112.184 15.488C111.912 14.968 111.776 14.368 111.776 13.688ZM122.043 13.7L125.091 17H123.243L120.795 14.156V17H119.427V8.12H120.795V13.28L123.195 10.388H125.091L122.043 13.7Z" fill="#2684FF"/>
</svg>
