<svg width="17" height="17" viewBox="0 0 17 17" fill="none" xmlns="http://www.w3.org/2000/svg">
<path fill-rule="evenodd" clip-rule="evenodd" d="M4.31649 15.33H12.9145C13.4846 15.33 14.0313 15.1035 14.4344 14.7004C14.8375 14.2973 15.064 13.7506 15.064 13.1805V11H2.16699V13.1805C2.16699 13.7506 2.39346 14.2973 2.79657 14.7004C3.19968 15.1035 3.74641 15.33 4.31649 15.33ZM2.16699 9.5V4.5825C2.16699 4.20244 2.31797 3.83796 2.58671 3.56922C2.85545 3.30048 3.21994 3.1495 3.59999 3.1495H5.03299V1.7165C5.03299 1.52647 5.10848 1.34423 5.24285 1.20986C5.37722 1.07549 5.55946 1 5.74949 1C5.93952 1 6.12176 1.07549 6.25613 1.20986C6.3905 1.34423 6.46599 1.52647 6.46599 1.7165V3.1495H10.765V1.7165C10.765 1.52647 10.8405 1.34423 10.9749 1.20986C11.1092 1.07549 11.2915 1 11.4815 1C11.6715 1 11.8538 1.07549 11.9881 1.20986C12.1225 1.34423 12.198 1.52647 12.198 1.7165V3.1495H13.631C14.011 3.1495 14.3755 3.30048 14.6443 3.56922C14.913 3.83796 15.064 4.20244 15.064 4.5825V9.5H2.16699Z" fill="#667085"/>
</svg>
