<svg width="16" height="17" viewBox="0 0 16 17" fill="none" xmlns="http://www.w3.org/2000/svg">
<path d="M10.5376 11.7255L10.9635 11.9876L11.2255 11.5617L11.7588 10.6951L12.0238 10.2644L11.5903 10.0043L8.83301 8.34991V5.16634V4.66634H8.33301H7.33301H6.83301V5.16634V9.16634V9.44574L7.07096 9.59217L10.5376 11.7255ZM5.63979 2.80242C6.38797 2.49251 7.18986 2.33301 7.99967 2.33301C8.80949 2.33301 9.61138 2.49251 10.3596 2.80242C11.1077 3.11232 11.7875 3.56655 12.3602 4.13918C12.9328 4.71181 13.387 5.39162 13.6969 6.13979C14.0068 6.88797 14.1663 7.68986 14.1663 8.49967C14.1663 10.1352 13.5166 11.7037 12.3602 12.8602C11.2037 14.0166 9.63518 14.6663 7.99967 14.6663C7.18986 14.6663 6.38797 14.5068 5.63979 14.1969C4.89162 13.887 4.21181 13.4328 3.63918 12.8602C2.48271 11.7037 1.83301 10.1352 1.83301 8.49967C1.83301 6.86417 2.48271 5.29566 3.63918 4.13918C4.21181 3.56655 4.89162 3.11232 5.63979 2.80242Z" fill="#71798E" stroke="#71798E"/>
</svg>
