<svg width="89" height="25" viewBox="0 0 89 25" fill="none" xmlns="http://www.w3.org/2000/svg">
<rect x="0.5" y="0.5" width="88" height="24" rx="12" fill="#ECEEF2"/>
<rect x="0.5" y="0.5" width="88" height="24" rx="12" stroke="#D9DBE1"/>
<path d="M10.444 12.812C10.444 11.996 10.632 11.264 11.008 10.616C11.392 9.968 11.908 9.464 12.556 9.104C13.212 8.736 13.928 8.552 14.704 8.552C15.592 8.552 16.38 8.772 17.068 9.212C17.764 9.644 18.268 10.26 18.58 11.06H16.936C16.72 10.62 16.42 10.292 16.036 10.076C15.652 9.86 15.208 9.752 14.704 9.752C14.152 9.752 13.66 9.876 13.228 10.124C12.796 10.372 12.456 10.728 12.208 11.192C11.968 11.656 11.848 12.196 11.848 12.812C11.848 13.428 11.968 13.968 12.208 14.432C12.456 14.896 12.796 15.256 13.228 15.512C13.66 15.76 14.152 15.884 14.704 15.884C15.208 15.884 15.652 15.776 16.036 15.56C16.42 15.344 16.72 15.016 16.936 14.576H18.58C18.268 15.376 17.764 15.992 17.068 16.424C16.38 16.856 15.592 17.072 14.704 17.072C13.92 17.072 13.204 16.892 12.556 16.532C11.908 16.164 11.392 15.656 11.008 15.008C10.632 14.36 10.444 13.628 10.444 12.812ZM23.0493 17.108C22.4253 17.108 21.8613 16.968 21.3573 16.688C20.8533 16.4 20.4573 16 20.1693 15.488C19.8813 14.968 19.7373 14.368 19.7373 13.688C19.7373 13.016 19.8853 12.42 20.1813 11.9C20.4773 11.38 20.8813 10.98 21.3933 10.7C21.9053 10.42 22.4773 10.28 23.1093 10.28C23.7413 10.28 24.3133 10.42 24.8253 10.7C25.3373 10.98 25.7413 11.38 26.0373 11.9C26.3333 12.42 26.4813 13.016 26.4813 13.688C26.4813 14.36 26.3293 14.956 26.0253 15.476C25.7213 15.996 25.3053 16.4 24.7773 16.688C24.2573 16.968 23.6813 17.108 23.0493 17.108ZM23.0493 15.92C23.4013 15.92 23.7293 15.836 24.0333 15.668C24.3453 15.5 24.5973 15.248 24.7893 14.912C24.9813 14.576 25.0773 14.168 25.0773 13.688C25.0773 13.208 24.9853 12.804 24.8013 12.476C24.6173 12.14 24.3733 11.888 24.0693 11.72C23.7653 11.552 23.4373 11.468 23.0853 11.468C22.7333 11.468 22.4053 11.552 22.1013 11.72C21.8053 11.888 21.5693 12.14 21.3933 12.476C21.2173 12.804 21.1293 13.208 21.1293 13.688C21.1293 14.4 21.3093 14.952 21.6693 15.344C22.0373 15.728 22.4973 15.92 23.0493 15.92ZM35.8376 10.28C36.3576 10.28 36.8216 10.388 37.2296 10.604C37.6456 10.82 37.9696 11.14 38.2016 11.564C38.4416 11.988 38.5616 12.5 38.5616 13.1V17H37.2056V13.304C37.2056 12.712 37.0576 12.26 36.7616 11.948C36.4656 11.628 36.0616 11.468 35.5496 11.468C35.0376 11.468 34.6296 11.628 34.3256 11.948C34.0296 12.26 33.8816 12.712 33.8816 13.304V17H32.5256V13.304C32.5256 12.712 32.3776 12.26 32.0816 11.948C31.7856 11.628 31.3816 11.468 30.8696 11.468C30.3576 11.468 29.9496 11.628 29.6456 11.948C29.3496 12.26 29.2016 12.712 29.2016 13.304V17H27.8336V10.388H29.2016V11.144C29.4256 10.872 29.7096 10.66 30.0536 10.508C30.3976 10.356 30.7656 10.28 31.1576 10.28C31.6856 10.28 32.1576 10.392 32.5736 10.616C32.9896 10.84 33.3096 11.164 33.5336 11.588C33.7336 11.188 34.0456 10.872 34.4696 10.64C34.8936 10.4 35.3496 10.28 35.8376 10.28ZM41.6703 11.36C41.9023 11.056 42.2183 10.8 42.6183 10.592C43.0183 10.384 43.4703 10.28 43.9743 10.28C44.5503 10.28 45.0743 10.424 45.5463 10.712C46.0263 10.992 46.4023 11.388 46.6743 11.9C46.9463 12.412 47.0823 13 47.0823 13.664C47.0823 14.328 46.9463 14.924 46.6743 15.452C46.4023 15.972 46.0263 16.38 45.5463 16.676C45.0743 16.964 44.5503 17.108 43.9743 17.108C43.4703 17.108 43.0223 17.008 42.6303 16.808C42.2383 16.6 41.9183 16.344 41.6703 16.04V20.144H40.3023V10.388H41.6703V11.36ZM45.6903 13.664C45.6903 13.208 45.5943 12.816 45.4023 12.488C45.2183 12.152 44.9703 11.9 44.6583 11.732C44.3543 11.556 44.0263 11.468 43.6743 11.468C43.3303 11.468 43.0023 11.556 42.6903 11.732C42.3863 11.908 42.1383 12.164 41.9463 12.5C41.7623 12.836 41.6703 13.232 41.6703 13.688C41.6703 14.144 41.7623 14.544 41.9463 14.888C42.1383 15.224 42.3863 15.48 42.6903 15.656C43.0023 15.832 43.3303 15.92 43.6743 15.92C44.0263 15.92 44.3543 15.832 44.6583 15.656C44.9703 15.472 45.2183 15.208 45.4023 14.864C45.5943 14.52 45.6903 14.12 45.6903 13.664ZM49.8032 8.12V17H48.4352V8.12H49.8032ZM57.6592 13.532C57.6592 13.78 57.6432 14.004 57.6112 14.204H52.5592C52.5992 14.732 52.7952 15.156 53.1472 15.476C53.4992 15.796 53.9312 15.956 54.4432 15.956C55.1792 15.956 55.6992 15.648 56.0032 15.032H57.4792C57.2792 15.64 56.9152 16.14 56.3872 16.532C55.8672 16.916 55.2192 17.108 54.4432 17.108C53.8112 17.108 53.2432 16.968 52.7392 16.688C52.2432 16.4 51.8512 16 51.5632 15.488C51.2832 14.968 51.1432 14.368 51.1432 13.688C51.1432 13.008 51.2792 12.412 51.5512 11.9C51.8312 11.38 52.2192 10.98 52.7152 10.7C53.2192 10.42 53.7952 10.28 54.4432 10.28C55.0672 10.28 55.6232 10.416 56.1112 10.688C56.5992 10.96 56.9792 11.344 57.2512 11.84C57.5232 12.328 57.6592 12.892 57.6592 13.532ZM56.2312 13.1C56.2232 12.596 56.0432 12.192 55.6912 11.888C55.3392 11.584 54.9032 11.432 54.3832 11.432C53.9112 11.432 53.5072 11.584 53.1712 11.888C52.8352 12.184 52.6352 12.588 52.5712 13.1H56.2312ZM60.6015 11.504V15.164C60.6015 15.412 60.6575 15.592 60.7695 15.704C60.8895 15.808 61.0895 15.86 61.3695 15.86H62.2095V17H61.1295C60.5135 17 60.0415 16.856 59.7135 16.568C59.3855 16.28 59.2215 15.812 59.2215 15.164V11.504H58.4415V10.388H59.2215V8.744H60.6015V10.388H62.2095V11.504H60.6015ZM69.5303 13.532C69.5303 13.78 69.5143 14.004 69.4823 14.204H64.4303C64.4703 14.732 64.6663 15.156 65.0183 15.476C65.3703 15.796 65.8023 15.956 66.3143 15.956C67.0503 15.956 67.5703 15.648 67.8743 15.032H69.3503C69.1503 15.64 68.7863 16.14 68.2583 16.532C67.7383 16.916 67.0903 17.108 66.3143 17.108C65.6823 17.108 65.1143 16.968 64.6103 16.688C64.1143 16.4 63.7223 16 63.4343 15.488C63.1543 14.968 63.0143 14.368 63.0143 13.688C63.0143 13.008 63.1503 12.412 63.4223 11.9C63.7023 11.38 64.0903 10.98 64.5863 10.7C65.0903 10.42 65.6663 10.28 66.3143 10.28C66.9383 10.28 67.4943 10.416 67.9823 10.688C68.4703 10.96 68.8503 11.344 69.1223 11.84C69.3943 12.328 69.5303 12.892 69.5303 13.532ZM68.1023 13.1C68.0943 12.596 67.9143 12.192 67.5623 11.888C67.2103 11.584 66.7743 11.432 66.2543 11.432C65.7823 11.432 65.3783 11.584 65.0423 11.888C64.7063 12.184 64.5063 12.588 64.4423 13.1H68.1023ZM70.4206 13.664C70.4206 13 70.5566 12.412 70.8286 11.9C71.1086 11.388 71.4846 10.992 71.9566 10.712C72.4366 10.424 72.9686 10.28 73.5526 10.28C73.9846 10.28 74.4086 10.376 74.8246 10.568C75.2486 10.752 75.5846 11 75.8326 11.312V8.12H77.2126V17H75.8326V16.004C75.6086 16.324 75.2966 16.588 74.8966 16.796C74.5046 17.004 74.0526 17.108 73.5406 17.108C72.9646 17.108 72.4366 16.964 71.9566 16.676C71.4846 16.38 71.1086 15.972 70.8286 15.452C70.5566 14.924 70.4206 14.328 70.4206 13.664ZM75.8326 13.688C75.8326 13.232 75.7366 12.836 75.5446 12.5C75.3606 12.164 75.1166 11.908 74.8126 11.732C74.5086 11.556 74.1806 11.468 73.8286 11.468C73.4766 11.468 73.1486 11.556 72.8446 11.732C72.5406 11.9 72.2926 12.152 72.1006 12.488C71.9166 12.816 71.8246 13.208 71.8246 13.664C71.8246 14.12 71.9166 14.52 72.1006 14.864C72.2926 15.208 72.5406 15.472 72.8446 15.656C73.1566 15.832 73.4846 15.92 73.8286 15.92C74.1806 15.92 74.5086 15.832 74.8126 15.656C75.1166 15.48 75.3606 15.224 75.5446 14.888C75.7366 14.544 75.8326 14.144 75.8326 13.688Z" fill="#71798E"/>
</svg>
