<svg width="140" height="25" viewBox="0 0 140 25" fill="none" xmlns="http://www.w3.org/2000/svg">
<rect width="140" height="25" rx="12.5" fill="#F1A94B" fill-opacity="0.12"/>
<rect x="0.5" y="0.5" width="139" height="24" rx="12" stroke="#F1A94B" stroke-opacity="0.2"/>
<path d="M16.936 11.06C16.72 10.644 16.42 10.332 16.036 10.124C15.652 9.908 15.208 9.8 14.704 9.8C14.152 9.8 13.66 9.924 13.228 10.172C12.796 10.42 12.456 10.772 12.208 11.228C11.968 11.684 11.848 12.212 11.848 12.812C11.848 13.412 11.968 13.944 12.208 14.408C12.456 14.864 12.796 15.216 13.228 15.464C13.66 15.712 14.152 15.836 14.704 15.836C15.448 15.836 16.052 15.628 16.516 15.212C16.98 14.796 17.264 14.232 17.368 13.52H14.236V12.428H18.832V13.496C18.744 14.144 18.512 14.74 18.136 15.284C17.768 15.828 17.284 16.264 16.684 16.592C16.092 16.912 15.432 17.072 14.704 17.072C13.92 17.072 13.204 16.892 12.556 16.532C11.908 16.164 11.392 15.656 11.008 15.008C10.632 14.36 10.444 13.628 10.444 12.812C10.444 11.996 10.632 11.264 11.008 10.616C11.392 9.968 11.908 9.464 12.556 9.104C13.212 8.736 13.928 8.552 14.704 8.552C15.592 8.552 16.38 8.772 17.068 9.212C17.764 9.644 18.268 10.26 18.58 11.06H16.936ZM21.5493 11.348C21.7493 11.012 22.0133 10.752 22.3413 10.568C22.6773 10.376 23.0733 10.28 23.5293 10.28V11.696H23.1813C22.6453 11.696 22.2373 11.832 21.9573 12.104C21.6853 12.376 21.5493 12.848 21.5493 13.52V17H20.1813V10.388H21.5493V11.348ZM24.3307 13.664C24.3307 13 24.4667 12.412 24.7387 11.9C25.0187 11.388 25.3947 10.992 25.8667 10.712C26.3467 10.424 26.8747 10.28 27.4507 10.28C27.9707 10.28 28.4227 10.384 28.8067 10.592C29.1987 10.792 29.5107 11.044 29.7427 11.348V10.388H31.1227V17H29.7427V16.016C29.5107 16.328 29.1947 16.588 28.7947 16.796C28.3947 17.004 27.9387 17.108 27.4267 17.108C26.8587 17.108 26.3387 16.964 25.8667 16.676C25.3947 16.38 25.0187 15.972 24.7387 15.452C24.4667 14.924 24.3307 14.328 24.3307 13.664ZM29.7427 13.688C29.7427 13.232 29.6467 12.836 29.4547 12.5C29.2707 12.164 29.0267 11.908 28.7227 11.732C28.4187 11.556 28.0907 11.468 27.7387 11.468C27.3867 11.468 27.0587 11.556 26.7547 11.732C26.4507 11.9 26.2027 12.152 26.0107 12.488C25.8267 12.816 25.7347 13.208 25.7347 13.664C25.7347 14.12 25.8267 14.52 26.0107 14.864C26.2027 15.208 26.4507 15.472 26.7547 15.656C27.0667 15.832 27.3947 15.92 27.7387 15.92C28.0907 15.92 28.4187 15.832 28.7227 15.656C29.0267 15.48 29.2707 15.224 29.4547 14.888C29.6467 14.544 29.7427 14.144 29.7427 13.688ZM32.4635 13.688C32.4635 13.008 32.5995 12.412 32.8715 11.9C33.1515 11.38 33.5355 10.98 34.0235 10.7C34.5115 10.42 35.0715 10.28 35.7035 10.28C36.5035 10.28 37.1635 10.472 37.6835 10.856C38.2115 11.232 38.5675 11.772 38.7515 12.476H37.2755C37.1555 12.148 36.9635 11.892 36.6995 11.708C36.4355 11.524 36.1035 11.432 35.7035 11.432C35.1435 11.432 34.6955 11.632 34.3595 12.032C34.0315 12.424 33.8675 12.976 33.8675 13.688C33.8675 14.4 34.0315 14.956 34.3595 15.356C34.6955 15.756 35.1435 15.956 35.7035 15.956C36.4955 15.956 37.0195 15.608 37.2755 14.912H38.7515C38.5595 15.584 38.1995 16.12 37.6715 16.52C37.1435 16.912 36.4875 17.108 35.7035 17.108C35.0715 17.108 34.5115 16.968 34.0235 16.688C33.5355 16.4 33.1515 16 32.8715 15.488C32.5995 14.968 32.4635 14.368 32.4635 13.688ZM46.1748 13.532C46.1748 13.78 46.1588 14.004 46.1268 14.204H41.0748C41.1148 14.732 41.3108 15.156 41.6628 15.476C42.0148 15.796 42.4468 15.956 42.9588 15.956C43.6948 15.956 44.2148 15.648 44.5188 15.032H45.9948C45.7948 15.64 45.4308 16.14 44.9028 16.532C44.3828 16.916 43.7348 17.108 42.9588 17.108C42.3268 17.108 41.7588 16.968 41.2548 16.688C40.7588 16.4 40.3668 16 40.0788 15.488C39.7988 14.968 39.6588 14.368 39.6588 13.688C39.6588 13.008 39.7948 12.412 40.0668 11.9C40.3468 11.38 40.7348 10.98 41.2308 10.7C41.7348 10.42 42.3108 10.28 42.9588 10.28C43.5828 10.28 44.1388 10.416 44.6268 10.688C45.1148 10.96 45.4948 11.344 45.7668 11.84C46.0388 12.328 46.1748 12.892 46.1748 13.532ZM44.7468 13.1C44.7388 12.596 44.5588 12.192 44.2068 11.888C43.8548 11.584 43.4188 11.432 42.8988 11.432C42.4268 11.432 42.0228 11.584 41.6868 11.888C41.3508 12.184 41.1508 12.588 41.0868 13.1H44.7468ZM52.0063 11.36C52.2383 11.056 52.5543 10.8 52.9543 10.592C53.3543 10.384 53.8063 10.28 54.3103 10.28C54.8863 10.28 55.4103 10.424 55.8823 10.712C56.3623 10.992 56.7383 11.388 57.0103 11.9C57.2823 12.412 57.4183 13 57.4183 13.664C57.4183 14.328 57.2823 14.924 57.0103 15.452C56.7383 15.972 56.3623 16.38 55.8823 16.676C55.4103 16.964 54.8863 17.108 54.3103 17.108C53.8063 17.108 53.3583 17.008 52.9663 16.808C52.5743 16.6 52.2543 16.344 52.0063 16.04V20.144H50.6383V10.388H52.0063V11.36ZM56.0263 13.664C56.0263 13.208 55.9303 12.816 55.7383 12.488C55.5543 12.152 55.3063 11.9 54.9943 11.732C54.6903 11.556 54.3623 11.468 54.0103 11.468C53.6663 11.468 53.3383 11.556 53.0263 11.732C52.7223 11.908 52.4743 12.164 52.2823 12.5C52.0983 12.836 52.0063 13.232 52.0063 13.688C52.0063 14.144 52.0983 14.544 52.2823 14.888C52.4743 15.224 52.7223 15.48 53.0263 15.656C53.3383 15.832 53.6663 15.92 54.0103 15.92C54.3623 15.92 54.6903 15.832 54.9943 15.656C55.3063 15.472 55.5543 15.208 55.7383 14.864C55.9303 14.52 56.0263 14.12 56.0263 13.664ZM64.8311 13.532C64.8311 13.78 64.8151 14.004 64.7831 14.204H59.7311C59.7711 14.732 59.9671 15.156 60.3191 15.476C60.6711 15.796 61.1031 15.956 61.6151 15.956C62.3511 15.956 62.8711 15.648 63.1751 15.032H64.6511C64.4511 15.64 64.0871 16.14 63.5591 16.532C63.0391 16.916 62.3911 17.108 61.6151 17.108C60.9831 17.108 60.4151 16.968 59.9111 16.688C59.4151 16.4 59.0231 16 58.7351 15.488C58.4551 14.968 58.3151 14.368 58.3151 13.688C58.3151 13.008 58.4511 12.412 58.7231 11.9C59.0031 11.38 59.3911 10.98 59.8871 10.7C60.3911 10.42 60.9671 10.28 61.6151 10.28C62.2391 10.28 62.7951 10.416 63.2831 10.688C63.7711 10.96 64.1511 11.344 64.4231 11.84C64.6951 12.328 64.8311 12.892 64.8311 13.532ZM63.4031 13.1C63.3951 12.596 63.2151 12.192 62.8631 11.888C62.5111 11.584 62.0751 11.432 61.5551 11.432C61.0831 11.432 60.6791 11.584 60.3431 11.888C60.0071 12.184 59.8071 12.588 59.7431 13.1H63.4031ZM67.5453 11.348C67.7453 11.012 68.0093 10.752 68.3373 10.568C68.6733 10.376 69.0693 10.28 69.5253 10.28V11.696H69.1773C68.6413 11.696 68.2333 11.832 67.9533 12.104C67.6813 12.376 67.5453 12.848 67.5453 13.52V17H66.1773V10.388H67.5453V11.348ZM71.4788 9.512C71.2308 9.512 71.0228 9.428 70.8548 9.26C70.6868 9.092 70.6028 8.884 70.6028 8.636C70.6028 8.388 70.6868 8.18 70.8548 8.012C71.0228 7.844 71.2308 7.76 71.4788 7.76C71.7188 7.76 71.9228 7.844 72.0908 8.012C72.2588 8.18 72.3428 8.388 72.3428 8.636C72.3428 8.884 72.2588 9.092 72.0908 9.26C71.9228 9.428 71.7188 9.512 71.4788 9.512ZM72.1508 10.388V17H70.7828V10.388H72.1508ZM76.8149 17.108C76.1909 17.108 75.6269 16.968 75.1229 16.688C74.6189 16.4 74.2229 16 73.9349 15.488C73.6469 14.968 73.5029 14.368 73.5029 13.688C73.5029 13.016 73.6509 12.42 73.9469 11.9C74.2429 11.38 74.6469 10.98 75.1589 10.7C75.6709 10.42 76.2429 10.28 76.8749 10.28C77.5069 10.28 78.0789 10.42 78.5909 10.7C79.1029 10.98 79.5069 11.38 79.8029 11.9C80.0989 12.42 80.2469 13.016 80.2469 13.688C80.2469 14.36 80.0949 14.956 79.7909 15.476C79.4869 15.996 79.0709 16.4 78.5429 16.688C78.0229 16.968 77.4469 17.108 76.8149 17.108ZM76.8149 15.92C77.1669 15.92 77.4949 15.836 77.7989 15.668C78.1109 15.5 78.3629 15.248 78.5549 14.912C78.7469 14.576 78.8429 14.168 78.8429 13.688C78.8429 13.208 78.7509 12.804 78.5669 12.476C78.3829 12.14 78.1389 11.888 77.8349 11.72C77.5309 11.552 77.2029 11.468 76.8509 11.468C76.4989 11.468 76.1709 11.552 75.8669 11.72C75.5709 11.888 75.3349 12.14 75.1589 12.476C74.9829 12.804 74.8949 13.208 74.8949 13.688C74.8949 14.4 75.0749 14.952 75.4349 15.344C75.8029 15.728 76.2629 15.92 76.8149 15.92ZM81.1432 13.664C81.1432 13 81.2792 12.412 81.5512 11.9C81.8312 11.388 82.2072 10.992 82.6792 10.712C83.1592 10.424 83.6912 10.28 84.2752 10.28C84.7072 10.28 85.1312 10.376 85.5472 10.568C85.9712 10.752 86.3072 11 86.5552 11.312V8.12H87.9352V17H86.5552V16.004C86.3312 16.324 86.0192 16.588 85.6192 16.796C85.2272 17.004 84.7752 17.108 84.2632 17.108C83.6872 17.108 83.1592 16.964 82.6792 16.676C82.2072 16.38 81.8312 15.972 81.5512 15.452C81.2792 14.924 81.1432 14.328 81.1432 13.664ZM86.5552 13.688C86.5552 13.232 86.4592 12.836 86.2672 12.5C86.0832 12.164 85.8392 11.908 85.5352 11.732C85.2312 11.556 84.9032 11.468 84.5512 11.468C84.1992 11.468 83.8712 11.556 83.5672 11.732C83.2632 11.9 83.0152 12.152 82.8232 12.488C82.6392 12.816 82.5472 13.208 82.5472 13.664C82.5472 14.12 82.6392 14.52 82.8232 14.864C83.0152 15.208 83.2632 15.472 83.5672 15.656C83.8792 15.832 84.2072 15.92 84.5512 15.92C84.9032 15.92 85.2312 15.832 85.5352 15.656C85.8392 15.48 86.0832 15.224 86.2672 14.888C86.4592 14.544 86.5552 14.144 86.5552 13.688ZM92.3932 13.664C92.3932 13 92.5292 12.412 92.8012 11.9C93.0812 11.388 93.4572 10.992 93.9292 10.712C94.4092 10.424 94.9372 10.28 95.5132 10.28C96.0332 10.28 96.4852 10.384 96.8692 10.592C97.2612 10.792 97.5732 11.044 97.8052 11.348V10.388H99.1852V17H97.8052V16.016C97.5732 16.328 97.2572 16.588 96.8572 16.796C96.4572 17.004 96.0012 17.108 95.4892 17.108C94.9212 17.108 94.4012 16.964 93.9292 16.676C93.4572 16.38 93.0812 15.972 92.8012 15.452C92.5292 14.924 92.3932 14.328 92.3932 13.664ZM97.8052 13.688C97.8052 13.232 97.7092 12.836 97.5172 12.5C97.3332 12.164 97.0892 11.908 96.7852 11.732C96.4812 11.556 96.1532 11.468 95.8012 11.468C95.4492 11.468 95.1212 11.556 94.8172 11.732C94.5132 11.9 94.2652 12.152 94.0732 12.488C93.8892 12.816 93.7972 13.208 93.7972 13.664C93.7972 14.12 93.8892 14.52 94.0732 14.864C94.2652 15.208 94.5132 15.472 94.8172 15.656C95.1292 15.832 95.4572 15.92 95.8012 15.92C96.1532 15.92 96.4812 15.832 96.7852 15.656C97.0892 15.48 97.3332 15.224 97.5172 14.888C97.7092 14.544 97.8052 14.144 97.8052 13.688ZM100.526 13.688C100.526 13.008 100.662 12.412 100.934 11.9C101.214 11.38 101.598 10.98 102.086 10.7C102.574 10.42 103.134 10.28 103.766 10.28C104.566 10.28 105.226 10.472 105.746 10.856C106.274 11.232 106.63 11.772 106.814 12.476H105.338C105.218 12.148 105.026 11.892 104.762 11.708C104.498 11.524 104.166 11.432 103.766 11.432C103.206 11.432 102.758 11.632 102.422 12.032C102.094 12.424 101.93 12.976 101.93 13.688C101.93 14.4 102.094 14.956 102.422 15.356C102.758 15.756 103.206 15.956 103.766 15.956C104.558 15.956 105.082 15.608 105.338 14.912H106.814C106.622 15.584 106.262 16.12 105.734 16.52C105.206 16.912 104.55 17.108 103.766 17.108C103.134 17.108 102.574 16.968 102.086 16.688C101.598 16.4 101.214 16 100.934 15.488C100.662 14.968 100.526 14.368 100.526 13.688ZM109.773 11.504V15.164C109.773 15.412 109.829 15.592 109.941 15.704C110.061 15.808 110.261 15.86 110.541 15.86H111.381V17H110.301C109.685 17 109.213 16.856 108.885 16.568C108.557 16.28 108.393 15.812 108.393 15.164V11.504H107.613V10.388H108.393V8.744H109.773V10.388H111.381V11.504H109.773ZM113.338 9.512C113.09 9.512 112.882 9.428 112.714 9.26C112.546 9.092 112.462 8.884 112.462 8.636C112.462 8.388 112.546 8.18 112.714 8.012C112.882 7.844 113.09 7.76 113.338 7.76C113.578 7.76 113.782 7.844 113.95 8.012C114.118 8.18 114.202 8.388 114.202 8.636C114.202 8.884 114.118 9.092 113.95 9.26C113.782 9.428 113.578 9.512 113.338 9.512ZM114.01 10.388V17H112.642V10.388H114.01ZM118.362 15.776L120.234 10.388H121.686L119.166 17H117.534L115.026 10.388H116.49L118.362 15.776ZM128.78 13.532C128.78 13.78 128.764 14.004 128.732 14.204H123.68C123.72 14.732 123.916 15.156 124.268 15.476C124.62 15.796 125.052 15.956 125.564 15.956C126.3 15.956 126.82 15.648 127.124 15.032H128.6C128.4 15.64 128.036 16.14 127.508 16.532C126.988 16.916 126.34 17.108 125.564 17.108C124.932 17.108 124.364 16.968 123.86 16.688C123.364 16.4 122.972 16 122.684 15.488C122.404 14.968 122.264 14.368 122.264 13.688C122.264 13.008 122.4 12.412 122.672 11.9C122.952 11.38 123.34 10.98 123.836 10.7C124.34 10.42 124.916 10.28 125.564 10.28C126.188 10.28 126.744 10.416 127.232 10.688C127.72 10.96 128.1 11.344 128.372 11.84C128.644 12.328 128.78 12.892 128.78 13.532ZM127.352 13.1C127.344 12.596 127.164 12.192 126.812 11.888C126.46 11.584 126.024 11.432 125.504 11.432C125.032 11.432 124.628 11.584 124.292 11.888C123.956 12.184 123.756 12.588 123.692 13.1H127.352Z" fill="#F1A94B"/>
</svg>
