<svg width="40" height="40" viewBox="0 0 40 40" fill="none" xmlns="http://www.w3.org/2000/svg">
<path d="M0 12C0 5.37258 5.37258 0 12 0H28C34.6274 0 40 5.37258 40 12V28C40 34.6274 34.6274 40 28 40H12C5.37258 40 0 34.6274 0 28V12Z" fill="#ADD1FF"/>
<path d="M11.9998 22L19.9998 19L27.9998 22M19.9998 11C22.3357 13.0666 25.3843 14.1426 28.4998 14C28.9534 15.543 29.0922 17.1615 28.908 18.7592C28.7237 20.3569 28.2202 21.9013 27.4272 23.3005C26.6343 24.6998 25.5682 25.9254 24.2923 26.9045C23.0164 27.8836 21.5566 28.5962 19.9998 29C18.443 28.5962 16.9833 27.8836 15.7074 26.9045C14.4314 25.9254 13.3653 24.6998 12.5724 23.3005C11.7795 21.9013 11.276 20.3569 11.0917 18.7592C10.9075 17.1615 11.0462 15.543 11.4998 14C14.6154 14.1426 17.664 13.0666 19.9998 11Z" stroke="#0254BF" stroke-width="2" stroke-linecap="round" stroke-linejoin="round"/>
</svg>
