<svg width="16" height="17" viewBox="0 0 16 17" fill="none" xmlns="http://www.w3.org/2000/svg">
<path d="M8.00016 1.8335C7.85483 1.8335 7.71216 1.83483 7.57216 1.83683L7.1615 1.84816L6.96216 1.85683L6.57616 1.8795L6.2075 1.91016C3.0175 2.2195 1.7195 3.5175 1.41016 6.7075L1.3795 7.07616L1.35683 7.46216C1.3535 7.5275 1.35016 7.59416 1.34816 7.6615L1.33683 8.07216L1.33416 8.28416L1.3335 8.50016C1.3335 8.6455 1.33483 8.78816 1.33683 8.92816L1.34816 9.33883L1.35683 9.53816L1.3795 9.92416L1.41016 10.2928C1.7195 13.4828 3.0175 14.7808 6.2075 15.0902L6.57616 15.1208L6.96216 15.1435C7.0275 15.1468 7.09416 15.1502 7.1615 15.1522L7.57216 15.1635L8.00016 15.1668L8.42816 15.1635L8.83883 15.1522L9.03816 15.1435L9.42416 15.1208L9.79283 15.0902C12.9828 14.7808 14.2808 13.4828 14.5902 10.2928L14.6208 9.92416L14.6435 9.53816C14.6468 9.47283 14.6502 9.40616 14.6522 9.33883L14.6635 8.92816L14.6668 8.50016L14.6635 8.07216L14.6522 7.6615L14.6435 7.46216L14.6208 7.07616L14.5902 6.7075C14.2808 3.5175 12.9828 2.2195 9.79283 1.91016L9.42416 1.8795L9.03816 1.85683C8.97173 1.85359 8.90529 1.8507 8.83883 1.84816L8.42816 1.83683L8.21616 1.83416L8.00016 1.8335ZM8.00683 5.16683C8.17675 5.16702 8.34018 5.23208 8.46374 5.34873C8.5873 5.46537 8.66165 5.6248 8.67161 5.79443C8.68157 5.96405 8.62638 6.13108 8.51732 6.26138C8.40826 6.39169 8.25356 6.47543 8.08483 6.4955L8.00016 6.50016C7.83024 6.49997 7.66681 6.43491 7.54325 6.31826C7.41969 6.20162 7.34534 6.04219 7.33538 5.87257C7.32542 5.70294 7.38061 5.53591 7.48967 5.40561C7.59873 5.27531 7.75343 5.19157 7.92216 5.1715L8.00683 5.16683ZM8.00016 7.8335C8.16345 7.83352 8.32105 7.89347 8.44308 8.00197C8.5651 8.11048 8.64306 8.26 8.66216 8.42216L8.66683 8.50016V10.5002L8.74483 10.5048C8.89364 10.5224 9.0322 10.5895 9.13815 10.6955C9.24411 10.8015 9.31128 10.94 9.32883 11.0888L9.3335 11.1668C9.33347 11.3301 9.27352 11.4877 9.16502 11.6097C9.05651 11.7318 8.907 11.8097 8.74483 11.8288L8.66683 11.8335H8.00016C7.83687 11.8335 7.67927 11.7735 7.55725 11.665C7.43522 11.5565 7.35727 11.407 7.33816 11.2448L7.3335 11.1668V9.16683C7.16358 9.16664 7.00014 9.10158 6.87658 8.98493C6.75303 8.86828 6.67867 8.70886 6.66871 8.53923C6.65876 8.3696 6.71395 8.20258 6.82301 8.07227C6.93207 7.94197 7.08677 7.85823 7.2555 7.83816L7.3335 7.8335H8.00016Z" fill="#71798E"/>
</svg>
