<svg width="61" height="26" viewBox="0 0 61 26" fill="none" xmlns="http://www.w3.org/2000/svg">
<rect y="0.5" width="61" height="25" rx="12.5" fill="#F1A94B" fill-opacity="0.2"/>
<rect x="0.5" y="1" width="60" height="24" rx="12" stroke="#F1A94B" stroke-opacity="0.22"/>
<path d="M12.268 16.396H15.088V17.5H10.9V9.16H12.268V16.396ZM19.1 17.608C18.476 17.608 17.912 17.468 17.408 17.188C16.904 16.9 16.508 16.5 16.22 15.988C15.932 15.468 15.788 14.868 15.788 14.188C15.788 13.516 15.936 12.92 16.232 12.4C16.528 11.88 16.932 11.48 17.444 11.2C17.956 10.92 18.528 10.78 19.16 10.78C19.792 10.78 20.364 10.92 20.876 11.2C21.388 11.48 21.792 11.88 22.088 12.4C22.384 12.92 22.532 13.516 22.532 14.188C22.532 14.86 22.38 15.456 22.076 15.976C21.772 16.496 21.356 16.9 20.828 17.188C20.308 17.468 19.732 17.608 19.1 17.608ZM19.1 16.42C19.452 16.42 19.78 16.336 20.084 16.168C20.396 16 20.648 15.748 20.84 15.412C21.032 15.076 21.128 14.668 21.128 14.188C21.128 13.708 21.036 13.304 20.852 12.976C20.668 12.64 20.424 12.388 20.12 12.22C19.816 12.052 19.488 11.968 19.136 11.968C18.784 11.968 18.456 12.052 18.152 12.22C17.856 12.388 17.62 12.64 17.444 12.976C17.268 13.304 17.18 13.708 17.18 14.188C17.18 14.9 17.36 15.452 17.72 15.844C18.088 16.228 18.548 16.42 19.1 16.42ZM23.4284 14.188C23.4284 13.508 23.5644 12.912 23.8364 12.4C24.1164 11.88 24.5004 11.48 24.9884 11.2C25.4764 10.92 26.0364 10.78 26.6684 10.78C27.4684 10.78 28.1284 10.972 28.6484 11.356C29.1764 11.732 29.5324 12.272 29.7164 12.976H28.2404C28.1204 12.648 27.9284 12.392 27.6644 12.208C27.4004 12.024 27.0684 11.932 26.6684 11.932C26.1084 11.932 25.6604 12.132 25.3244 12.532C24.9964 12.924 24.8324 13.476 24.8324 14.188C24.8324 14.9 24.9964 15.456 25.3244 15.856C25.6604 16.256 26.1084 16.456 26.6684 16.456C27.4604 16.456 27.9844 16.108 28.2404 15.412H29.7164C29.5244 16.084 29.1644 16.62 28.6364 17.02C28.1084 17.412 27.4524 17.608 26.6684 17.608C26.0364 17.608 25.4764 17.468 24.9884 17.188C24.5004 16.9 24.1164 16.5 23.8364 15.988C23.5644 15.468 23.4284 14.868 23.4284 14.188ZM33.6957 14.2L36.7437 17.5H34.8957L32.4477 14.656V17.5H31.0797V8.62H32.4477V13.78L34.8477 10.888H36.7437L33.6957 14.2ZM43.7842 14.032C43.7842 14.28 43.7682 14.504 43.7362 14.704H38.6842C38.7242 15.232 38.9202 15.656 39.2722 15.976C39.6242 16.296 40.0562 16.456 40.5682 16.456C41.3042 16.456 41.8242 16.148 42.1282 15.532H43.6042C43.4042 16.14 43.0402 16.64 42.5122 17.032C41.9922 17.416 41.3442 17.608 40.5682 17.608C39.9362 17.608 39.3682 17.468 38.8642 17.188C38.3682 16.9 37.9762 16.5 37.6882 15.988C37.4082 15.468 37.2682 14.868 37.2682 14.188C37.2682 13.508 37.4042 12.912 37.6762 12.4C37.9562 11.88 38.3442 11.48 38.8402 11.2C39.3442 10.92 39.9202 10.78 40.5682 10.78C41.1922 10.78 41.7482 10.916 42.2362 11.188C42.7242 11.46 43.1042 11.844 43.3762 12.34C43.6482 12.828 43.7842 13.392 43.7842 14.032ZM42.3562 13.6C42.3482 13.096 42.1682 12.692 41.8162 12.388C41.4642 12.084 41.0282 11.932 40.5082 11.932C40.0362 11.932 39.6322 12.084 39.2962 12.388C38.9602 12.684 38.7602 13.088 38.6962 13.6H42.3562ZM44.6745 14.164C44.6745 13.5 44.8105 12.912 45.0825 12.4C45.3625 11.888 45.7385 11.492 46.2105 11.212C46.6905 10.924 47.2225 10.78 47.8065 10.78C48.2385 10.78 48.6625 10.876 49.0785 11.068C49.5025 11.252 49.8385 11.5 50.0865 11.812V8.62H51.4665V17.5H50.0865V16.504C49.8625 16.824 49.5505 17.088 49.1505 17.296C48.7585 17.504 48.3065 17.608 47.7945 17.608C47.2185 17.608 46.6905 17.464 46.2105 17.176C45.7385 16.88 45.3625 16.472 45.0825 15.952C44.8105 15.424 44.6745 14.828 44.6745 14.164ZM50.0865 14.188C50.0865 13.732 49.9905 13.336 49.7985 13C49.6145 12.664 49.3705 12.408 49.0665 12.232C48.7625 12.056 48.4345 11.968 48.0825 11.968C47.7305 11.968 47.4025 12.056 47.0985 12.232C46.7945 12.4 46.5465 12.652 46.3545 12.988C46.1705 13.316 46.0785 13.708 46.0785 14.164C46.0785 14.62 46.1705 15.02 46.3545 15.364C46.5465 15.708 46.7945 15.972 47.0985 16.156C47.4105 16.332 47.7385 16.42 48.0825 16.42C48.4345 16.42 48.7625 16.332 49.0665 16.156C49.3705 15.98 49.6145 15.724 49.7985 15.388C49.9905 15.044 50.0865 14.644 50.0865 14.188Z" fill="#F1A94B"/>
</svg>
