<svg width="40" height="40" viewBox="0 0 40 40" fill="none" xmlns="http://www.w3.org/2000/svg">
<rect width="40" height="40" rx="12" fill="#E3EFFF"/>
<path d="M16 19V15C16 13.9391 16.4214 12.9217 17.1716 12.1716C17.9217 11.4214 18.9391 11 20 11C21.0609 11 22.0783 11.4214 22.8284 12.1716C23.5786 12.9217 24 13.9391 24 15V19M13 21C13 20.4696 13.2107 19.9609 13.5858 19.5858C13.9609 19.2107 14.4696 19 15 19H25C25.5304 19 26.0391 19.2107 26.4142 19.5858C26.7893 19.9609 27 20.4696 27 21V27C27 27.5304 26.7893 28.0391 26.4142 28.4142C26.0391 28.7893 25.5304 29 25 29H15C14.4696 29 13.9609 28.7893 13.5858 28.4142C13.2107 28.0391 13 27.5304 13 27V21ZM19 24C19 24.2652 19.1054 24.5196 19.2929 24.7071C19.4804 24.8946 19.7348 25 20 25C20.2652 25 20.5196 24.8946 20.7071 24.7071C20.8946 24.5196 21 24.2652 21 24C21 23.7348 20.8946 23.4804 20.7071 23.2929C20.5196 23.1054 20.2652 23 20 23C19.7348 23 19.4804 23.1054 19.2929 23.2929C19.1054 23.4804 19 23.7348 19 24Z" stroke="#0254BF" stroke-width="2" stroke-linecap="round" stroke-linejoin="round"/>
</svg>
