<svg width="68" height="26" viewBox="0 0 68 26" fill="none" xmlns="http://www.w3.org/2000/svg">
<rect y="0.5" width="68" height="25" rx="12.5" fill="#71798E" fill-opacity="0.2"/>
<rect x="0.5" y="1" width="67" height="24" rx="12" stroke="#71798E" stroke-opacity="0.22"/>
<path d="M16.732 11.644C16.732 12.068 16.632 12.468 16.432 12.844C16.232 13.22 15.912 13.528 15.472 13.768C15.032 14 14.468 14.116 13.78 14.116H12.268V17.5H10.9V9.16H13.78C14.42 9.16 14.96 9.272 15.4 9.496C15.848 9.712 16.18 10.008 16.396 10.384C16.62 10.76 16.732 11.18 16.732 11.644ZM13.78 13C14.3 13 14.688 12.884 14.944 12.652C15.2 12.412 15.328 12.076 15.328 11.644C15.328 10.732 14.812 10.276 13.78 10.276H12.268V13H13.78ZM24.0967 14.032C24.0967 14.28 24.0807 14.504 24.0487 14.704H18.9967C19.0367 15.232 19.2327 15.656 19.5847 15.976C19.9367 16.296 20.3687 16.456 20.8807 16.456C21.6167 16.456 22.1367 16.148 22.4407 15.532H23.9167C23.7167 16.14 23.3527 16.64 22.8247 17.032C22.3047 17.416 21.6567 17.608 20.8807 17.608C20.2487 17.608 19.6807 17.468 19.1767 17.188C18.6807 16.9 18.2887 16.5 18.0007 15.988C17.7207 15.468 17.5807 14.868 17.5807 14.188C17.5807 13.508 17.7167 12.912 17.9887 12.4C18.2687 11.88 18.6567 11.48 19.1527 11.2C19.6567 10.92 20.2327 10.78 20.8807 10.78C21.5047 10.78 22.0607 10.916 22.5487 11.188C23.0367 11.46 23.4167 11.844 23.6887 12.34C23.9607 12.828 24.0967 13.392 24.0967 14.032ZM22.6687 13.6C22.6607 13.096 22.4807 12.692 22.1287 12.388C21.7767 12.084 21.3407 11.932 20.8207 11.932C20.3487 11.932 19.9447 12.084 19.6087 12.388C19.2727 12.684 19.0727 13.088 19.0087 13.6H22.6687ZM28.779 10.78C29.299 10.78 29.763 10.888 30.171 11.104C30.587 11.32 30.911 11.64 31.143 12.064C31.375 12.488 31.491 13 31.491 13.6V17.5H30.135V13.804C30.135 13.212 29.987 12.76 29.691 12.448C29.395 12.128 28.991 11.968 28.479 11.968C27.967 11.968 27.559 12.128 27.255 12.448C26.959 12.76 26.811 13.212 26.811 13.804V17.5H25.443V10.888H26.811V11.644C27.035 11.372 27.319 11.16 27.663 11.008C28.015 10.856 28.387 10.78 28.779 10.78ZM32.7799 14.164C32.7799 13.5 32.9159 12.912 33.1879 12.4C33.4679 11.888 33.8439 11.492 34.3159 11.212C34.7959 10.924 35.3279 10.78 35.9119 10.78C36.3439 10.78 36.7679 10.876 37.1839 11.068C37.6079 11.252 37.9439 11.5 38.1919 11.812V8.62H39.5719V17.5H38.1919V16.504C37.9679 16.824 37.6559 17.088 37.2559 17.296C36.8639 17.504 36.4119 17.608 35.8999 17.608C35.3239 17.608 34.7959 17.464 34.3159 17.176C33.8439 16.88 33.4679 16.472 33.1879 15.952C32.9159 15.424 32.7799 14.828 32.7799 14.164ZM38.1919 14.188C38.1919 13.732 38.0959 13.336 37.9039 13C37.7199 12.664 37.4759 12.408 37.1719 12.232C36.8679 12.056 36.5399 11.968 36.1879 11.968C35.8359 11.968 35.5079 12.056 35.2039 12.232C34.8999 12.4 34.6519 12.652 34.4599 12.988C34.2759 13.316 34.1839 13.708 34.1839 14.164C34.1839 14.62 34.2759 15.02 34.4599 15.364C34.6519 15.708 34.8999 15.972 35.2039 16.156C35.5159 16.332 35.8439 16.42 36.1879 16.42C36.5399 16.42 36.8679 16.332 37.1719 16.156C37.4759 15.98 37.7199 15.724 37.9039 15.388C38.0959 15.044 38.1919 14.644 38.1919 14.188ZM42.0648 10.012C41.8168 10.012 41.6088 9.928 41.4408 9.76C41.2728 9.592 41.1888 9.384 41.1888 9.136C41.1888 8.888 41.2728 8.68 41.4408 8.512C41.6088 8.344 41.8168 8.26 42.0648 8.26C42.3048 8.26 42.5088 8.344 42.6768 8.512C42.8448 8.68 42.9288 8.888 42.9288 9.136C42.9288 9.384 42.8448 9.592 42.6768 9.76C42.5088 9.928 42.3048 10.012 42.0648 10.012ZM42.7368 10.888V17.5H41.3688V10.888H42.7368ZM47.8688 10.78C48.3888 10.78 48.8528 10.888 49.2608 11.104C49.6768 11.32 50.0008 11.64 50.2328 12.064C50.4648 12.488 50.5808 13 50.5808 13.6V17.5H49.2248V13.804C49.2248 13.212 49.0768 12.76 48.7808 12.448C48.4848 12.128 48.0808 11.968 47.5688 11.968C47.0568 11.968 46.6488 12.128 46.3448 12.448C46.0488 12.76 45.9008 13.212 45.9008 13.804V17.5H44.5328V10.888H45.9008V11.644C46.1248 11.372 46.4088 11.16 46.7528 11.008C47.1048 10.856 47.4768 10.78 47.8688 10.78ZM54.9898 10.78C55.5018 10.78 55.9538 10.884 56.3458 11.092C56.7458 11.292 57.0578 11.544 57.2818 11.848V10.888H58.6618V17.608C58.6618 18.216 58.5338 18.756 58.2778 19.228C58.0218 19.708 57.6498 20.084 57.1618 20.356C56.6818 20.628 56.1058 20.764 55.4338 20.764C54.5378 20.764 53.7938 20.552 53.2018 20.128C52.6098 19.712 52.2738 19.144 52.1938 18.424H53.5498C53.6538 18.768 53.8738 19.044 54.2098 19.252C54.5538 19.468 54.9618 19.576 55.4338 19.576C55.9858 19.576 56.4298 19.408 56.7658 19.072C57.1098 18.736 57.2818 18.248 57.2818 17.608V16.504C57.0498 16.816 56.7338 17.08 56.3338 17.296C55.9418 17.504 55.4938 17.608 54.9898 17.608C54.4138 17.608 53.8858 17.464 53.4058 17.176C52.9338 16.88 52.5578 16.472 52.2778 15.952C52.0058 15.424 51.8698 14.828 51.8698 14.164C51.8698 13.5 52.0058 12.912 52.2778 12.4C52.5578 11.888 52.9338 11.492 53.4058 11.212C53.8858 10.924 54.4138 10.78 54.9898 10.78ZM57.2818 14.188C57.2818 13.732 57.1858 13.336 56.9938 13C56.8098 12.664 56.5658 12.408 56.2618 12.232C55.9578 12.056 55.6298 11.968 55.2778 11.968C54.9258 11.968 54.5978 12.056 54.2938 12.232C53.9898 12.4 53.7418 12.652 53.5498 12.988C53.3658 13.316 53.2738 13.708 53.2738 14.164C53.2738 14.62 53.3658 15.02 53.5498 15.364C53.7418 15.708 53.9898 15.972 54.2938 16.156C54.6058 16.332 54.9338 16.42 55.2778 16.42C55.6298 16.42 55.9578 16.332 56.2618 16.156C56.5658 15.98 56.8098 15.724 56.9938 15.388C57.1858 15.044 57.2818 14.644 57.2818 14.188Z" fill="#71798E"/>
</svg>
