<svg width="106" height="25" viewBox="0 0 106 25" fill="none" xmlns="http://www.w3.org/2000/svg">
<rect x="0.5" y="0.5" width="105" height="24" rx="12" fill="#ECEEF2"/>
<rect x="0.5" y="0.5" width="105" height="24" rx="12" stroke="#D9DBE1"/>
<path d="M18 8.5V6.5M20.8333 9.66667L22.2667 8.23334M22 12.5H24M20.8333 15.3333L22.2667 16.7667M18 16.5V18.5M15.1667 15.3333L13.7333 16.7667M14 12.5H12M15.1667 9.66667L13.7333 8.23334" stroke="#71798E" stroke-width="1.33333" stroke-linecap="round" stroke-linejoin="round"/>
<path d="M36.732 11.144C36.732 11.568 36.632 11.968 36.432 12.344C36.232 12.72 35.912 13.028 35.472 13.268C35.032 13.5 34.468 13.616 33.78 13.616H32.268V17H30.9V8.66H33.78C34.42 8.66 34.96 8.772 35.4 8.996C35.848 9.212 36.18 9.508 36.396 9.884C36.62 10.26 36.732 10.68 36.732 11.144ZM33.78 12.5C34.3 12.5 34.688 12.384 34.944 12.152C35.2 11.912 35.328 11.576 35.328 11.144C35.328 10.232 34.812 9.776 33.78 9.776H32.268V12.5H33.78ZM39.4047 11.348C39.6047 11.012 39.8687 10.752 40.1967 10.568C40.5327 10.376 40.9287 10.28 41.3847 10.28V11.696H41.0367C40.5007 11.696 40.0927 11.832 39.8127 12.104C39.5407 12.376 39.4047 12.848 39.4047 13.52V17H38.0367V10.388H39.4047V11.348ZM45.5102 17.108C44.8862 17.108 44.3222 16.968 43.8182 16.688C43.3142 16.4 42.9182 16 42.6302 15.488C42.3422 14.968 42.1982 14.368 42.1982 13.688C42.1982 13.016 42.3462 12.42 42.6422 11.9C42.9382 11.38 43.3422 10.98 43.8542 10.7C44.3662 10.42 44.9382 10.28 45.5702 10.28C46.2022 10.28 46.7742 10.42 47.2862 10.7C47.7982 10.98 48.2022 11.38 48.4982 11.9C48.7942 12.42 48.9422 13.016 48.9422 13.688C48.9422 14.36 48.7902 14.956 48.4862 15.476C48.1822 15.996 47.7662 16.4 47.2382 16.688C46.7182 16.968 46.1422 17.108 45.5102 17.108ZM45.5102 15.92C45.8622 15.92 46.1902 15.836 46.4942 15.668C46.8062 15.5 47.0582 15.248 47.2502 14.912C47.4422 14.576 47.5382 14.168 47.5382 13.688C47.5382 13.208 47.4462 12.804 47.2622 12.476C47.0782 12.14 46.8342 11.888 46.5302 11.72C46.2262 11.552 45.8982 11.468 45.5462 11.468C45.1942 11.468 44.8662 11.552 44.5622 11.72C44.2662 11.888 44.0302 12.14 43.8542 12.476C43.6782 12.804 43.5902 13.208 43.5902 13.688C43.5902 14.4 43.7702 14.952 44.1302 15.344C44.4982 15.728 44.9582 15.92 45.5102 15.92ZM49.8385 13.688C49.8385 13.008 49.9745 12.412 50.2465 11.9C50.5265 11.38 50.9105 10.98 51.3985 10.7C51.8865 10.42 52.4465 10.28 53.0785 10.28C53.8785 10.28 54.5385 10.472 55.0585 10.856C55.5865 11.232 55.9425 11.772 56.1265 12.476H54.6505C54.5305 12.148 54.3385 11.892 54.0745 11.708C53.8105 11.524 53.4785 11.432 53.0785 11.432C52.5185 11.432 52.0705 11.632 51.7345 12.032C51.4065 12.424 51.2425 12.976 51.2425 13.688C51.2425 14.4 51.4065 14.956 51.7345 15.356C52.0705 15.756 52.5185 15.956 53.0785 15.956C53.8705 15.956 54.3945 15.608 54.6505 14.912H56.1265C55.9345 15.584 55.5745 16.12 55.0465 16.52C54.5185 16.912 53.8625 17.108 53.0785 17.108C52.4465 17.108 51.8865 16.968 51.3985 16.688C50.9105 16.4 50.5265 16 50.2465 15.488C49.9745 14.968 49.8385 14.368 49.8385 13.688ZM63.5498 13.532C63.5498 13.78 63.5338 14.004 63.5018 14.204H58.4498C58.4898 14.732 58.6858 15.156 59.0378 15.476C59.3898 15.796 59.8218 15.956 60.3338 15.956C61.0698 15.956 61.5898 15.648 61.8938 15.032H63.3698C63.1698 15.64 62.8058 16.14 62.2778 16.532C61.7578 16.916 61.1098 17.108 60.3338 17.108C59.7018 17.108 59.1338 16.968 58.6298 16.688C58.1338 16.4 57.7418 16 57.4538 15.488C57.1738 14.968 57.0338 14.368 57.0338 13.688C57.0338 13.008 57.1698 12.412 57.4418 11.9C57.7218 11.38 58.1098 10.98 58.6058 10.7C59.1098 10.42 59.6858 10.28 60.3338 10.28C60.9578 10.28 61.5138 10.416 62.0018 10.688C62.4898 10.96 62.8698 11.344 63.1418 11.84C63.4138 12.328 63.5498 12.892 63.5498 13.532ZM62.1218 13.1C62.1138 12.596 61.9338 12.192 61.5818 11.888C61.2298 11.584 60.7938 11.432 60.2738 11.432C59.8018 11.432 59.3978 11.584 59.0618 11.888C58.7258 12.184 58.5258 12.588 58.4618 13.1H62.1218ZM67.2961 17.108C66.7761 17.108 66.3081 17.016 65.8921 16.832C65.4841 16.64 65.1601 16.384 64.9201 16.064C64.6801 15.736 64.5521 15.372 64.5361 14.972H65.9521C65.9761 15.252 66.1081 15.488 66.3481 15.68C66.5961 15.864 66.9041 15.956 67.2721 15.956C67.6561 15.956 67.9521 15.884 68.1601 15.74C68.3761 15.588 68.4841 15.396 68.4841 15.164C68.4841 14.916 68.3641 14.732 68.1241 14.612C67.8921 14.492 67.5201 14.36 67.0081 14.216C66.5121 14.08 66.1081 13.948 65.7961 13.82C65.4841 13.692 65.2121 13.496 64.9801 13.232C64.7561 12.968 64.6441 12.62 64.6441 12.188C64.6441 11.836 64.7481 11.516 64.9561 11.228C65.1641 10.932 65.4601 10.7 65.8441 10.532C66.2361 10.364 66.6841 10.28 67.1881 10.28C67.9401 10.28 68.5441 10.472 69.0001 10.856C69.4641 11.232 69.7121 11.748 69.7441 12.404H68.3761C68.3521 12.108 68.2321 11.872 68.0161 11.696C67.8001 11.52 67.5081 11.432 67.1401 11.432C66.7801 11.432 66.5041 11.5 66.3121 11.636C66.1201 11.772 66.0241 11.952 66.0241 12.176C66.0241 12.352 66.0881 12.5 66.2161 12.62C66.3441 12.74 66.5001 12.836 66.6841 12.908C66.8681 12.972 67.1401 13.056 67.5001 13.16C67.9801 13.288 68.3721 13.42 68.6761 13.556C68.9881 13.684 69.2561 13.876 69.4801 14.132C69.7041 14.388 69.8201 14.728 69.8281 15.152C69.8281 15.528 69.7241 15.864 69.5161 16.16C69.3081 16.456 69.0121 16.688 68.6281 16.856C68.2521 17.024 67.8081 17.108 67.2961 17.108ZM73.7063 17.108C73.1863 17.108 72.7183 17.016 72.3023 16.832C71.8943 16.64 71.5703 16.384 71.3303 16.064C71.0903 15.736 70.9623 15.372 70.9463 14.972H72.3623C72.3863 15.252 72.5183 15.488 72.7583 15.68C73.0063 15.864 73.3143 15.956 73.6823 15.956C74.0663 15.956 74.3623 15.884 74.5703 15.74C74.7863 15.588 74.8943 15.396 74.8943 15.164C74.8943 14.916 74.7743 14.732 74.5343 14.612C74.3023 14.492 73.9303 14.36 73.4183 14.216C72.9223 14.08 72.5183 13.948 72.2063 13.82C71.8943 13.692 71.6223 13.496 71.3903 13.232C71.1663 12.968 71.0543 12.62 71.0543 12.188C71.0543 11.836 71.1583 11.516 71.3663 11.228C71.5743 10.932 71.8703 10.7 72.2543 10.532C72.6463 10.364 73.0943 10.28 73.5983 10.28C74.3503 10.28 74.9543 10.472 75.4103 10.856C75.8743 11.232 76.1223 11.748 76.1543 12.404H74.7863C74.7623 12.108 74.6423 11.872 74.4263 11.696C74.2103 11.52 73.9183 11.432 73.5503 11.432C73.1903 11.432 72.9143 11.5 72.7223 11.636C72.5303 11.772 72.4343 11.952 72.4343 12.176C72.4343 12.352 72.4983 12.5 72.6263 12.62C72.7543 12.74 72.9103 12.836 73.0943 12.908C73.2783 12.972 73.5503 13.056 73.9103 13.16C74.3903 13.288 74.7823 13.42 75.0863 13.556C75.3983 13.684 75.6663 13.876 75.8903 14.132C76.1143 14.388 76.2303 14.728 76.2383 15.152C76.2383 15.528 76.1343 15.864 75.9263 16.16C75.7183 16.456 75.4223 16.688 75.0383 16.856C74.6623 17.024 74.2183 17.108 73.7063 17.108ZM78.4124 9.512C78.1644 9.512 77.9564 9.428 77.7884 9.26C77.6204 9.092 77.5364 8.884 77.5364 8.636C77.5364 8.388 77.6204 8.18 77.7884 8.012C77.9564 7.844 78.1644 7.76 78.4124 7.76C78.6524 7.76 78.8564 7.844 79.0244 8.012C79.1924 8.18 79.2764 8.388 79.2764 8.636C79.2764 8.884 79.1924 9.092 79.0244 9.26C78.8564 9.428 78.6524 9.512 78.4124 9.512ZM79.0844 10.388V17H77.7164V10.388H79.0844ZM84.2165 10.28C84.7365 10.28 85.2005 10.388 85.6085 10.604C86.0245 10.82 86.3485 11.14 86.5805 11.564C86.8125 11.988 86.9285 12.5 86.9285 13.1V17H85.5725V13.304C85.5725 12.712 85.4245 12.26 85.1285 11.948C84.8325 11.628 84.4285 11.468 83.9165 11.468C83.4045 11.468 82.9965 11.628 82.6925 11.948C82.3965 12.26 82.2485 12.712 82.2485 13.304V17H80.8805V10.388H82.2485V11.144C82.4725 10.872 82.7565 10.66 83.1005 10.508C83.4525 10.356 83.8245 10.28 84.2165 10.28ZM91.3374 10.28C91.8494 10.28 92.3014 10.384 92.6934 10.592C93.0934 10.792 93.4054 11.044 93.6294 11.348V10.388H95.0094V17.108C95.0094 17.716 94.8814 18.256 94.6254 18.728C94.3694 19.208 93.9974 19.584 93.5094 19.856C93.0294 20.128 92.4534 20.264 91.7814 20.264C90.8854 20.264 90.1414 20.052 89.5494 19.628C88.9574 19.212 88.6214 18.644 88.5414 17.924H89.8974C90.0014 18.268 90.2214 18.544 90.5574 18.752C90.9014 18.968 91.3094 19.076 91.7814 19.076C92.3334 19.076 92.7774 18.908 93.1134 18.572C93.4574 18.236 93.6294 17.748 93.6294 17.108V16.004C93.3974 16.316 93.0814 16.58 92.6814 16.796C92.2894 17.004 91.8414 17.108 91.3374 17.108C90.7614 17.108 90.2334 16.964 89.7534 16.676C89.2814 16.38 88.9054 15.972 88.6254 15.452C88.3534 14.924 88.2174 14.328 88.2174 13.664C88.2174 13 88.3534 12.412 88.6254 11.9C88.9054 11.388 89.2814 10.992 89.7534 10.712C90.2334 10.424 90.7614 10.28 91.3374 10.28ZM93.6294 13.688C93.6294 13.232 93.5334 12.836 93.3414 12.5C93.1574 12.164 92.9134 11.908 92.6094 11.732C92.3054 11.556 91.9774 11.468 91.6254 11.468C91.2734 11.468 90.9454 11.556 90.6414 11.732C90.3374 11.9 90.0894 12.152 89.8974 12.488C89.7134 12.816 89.6214 13.208 89.6214 13.664C89.6214 14.12 89.7134 14.52 89.8974 14.864C90.0894 15.208 90.3374 15.472 90.6414 15.656C90.9534 15.832 91.2814 15.92 91.6254 15.92C91.9774 15.92 92.3054 15.832 92.6094 15.656C92.9134 15.48 93.1574 15.224 93.3414 14.888C93.5334 14.544 93.6294 14.144 93.6294 13.688Z" fill="#71798E"/>
</svg>
