<svg width="21" height="21" viewBox="0 0 21 21" fill="none" xmlns="http://www.w3.org/2000/svg">
<rect x="0.5" y="0.5" width="20" height="20" rx="10" fill="#0254BF"/>
<path d="M8.18196 13.33C9.07796 12.5553 9.78263 11.9207 10.296 11.426C10.8186 10.922 11.2526 10.3993 11.598 9.858C11.9433 9.31667 12.116 8.77533 12.116 8.234C12.116 7.674 11.9806 7.23533 11.71 6.918C11.4486 6.60067 11.0333 6.442 10.464 6.442C9.91329 6.442 9.48396 6.61933 9.17596 6.974C8.87729 7.31933 8.71863 7.786 8.69996 8.374H7.15996C7.18796 7.31 7.50529 6.498 8.11196 5.938C8.72796 5.36867 9.50729 5.084 10.45 5.084C11.4673 5.084 12.2606 5.364 12.83 5.924C13.4086 6.484 13.698 7.23067 13.698 8.164C13.698 8.836 13.5253 9.48467 13.18 10.11C12.844 10.726 12.438 11.2813 11.962 11.776C11.4953 12.2613 10.898 12.826 10.17 13.47L9.53996 14.03H13.978V15.36H7.17396V14.198L8.18196 13.33Z" fill="white"/>
</svg>
