<svg width="84" height="26" viewBox="0 0 84 26" fill="none" xmlns="http://www.w3.org/2000/svg">
<rect y="0.5" width="84" height="25" rx="12.5" fill="#00952A" fill-opacity="0.12"/>
<rect x="0.5" y="1" width="83" height="24" rx="12" stroke="#00952A" stroke-opacity="0.2"/>
<path d="M13.648 17.584C13.088 17.584 12.584 17.488 12.136 17.296C11.688 17.096 11.336 16.816 11.08 16.456C10.824 16.096 10.696 15.676 10.696 15.196H12.16C12.192 15.556 12.332 15.852 12.58 16.084C12.836 16.316 13.192 16.432 13.648 16.432C14.12 16.432 14.488 16.32 14.752 16.096C15.016 15.864 15.148 15.568 15.148 15.208C15.148 14.928 15.064 14.7 14.896 14.524C14.736 14.348 14.532 14.212 14.284 14.116C14.044 14.02 13.708 13.916 13.276 13.804C12.732 13.66 12.288 13.516 11.944 13.372C11.608 13.22 11.32 12.988 11.08 12.676C10.84 12.364 10.72 11.948 10.72 11.428C10.72 10.948 10.84 10.528 11.08 10.168C11.32 9.808 11.656 9.532 12.088 9.34C12.52 9.148 13.02 9.052 13.588 9.052C14.396 9.052 15.056 9.256 15.568 9.664C16.088 10.064 16.376 10.616 16.432 11.32H14.92C14.896 11.016 14.752 10.756 14.488 10.54C14.224 10.324 13.876 10.216 13.444 10.216C13.052 10.216 12.732 10.316 12.484 10.516C12.236 10.716 12.112 11.004 12.112 11.38C12.112 11.636 12.188 11.848 12.34 12.016C12.5 12.176 12.7 12.304 12.94 12.4C13.18 12.496 13.508 12.6 13.924 12.712C14.476 12.864 14.924 13.016 15.268 13.168C15.62 13.32 15.916 13.556 16.156 13.876C16.404 14.188 16.528 14.608 16.528 15.136C16.528 15.56 16.412 15.96 16.18 16.336C15.956 16.712 15.624 17.016 15.184 17.248C14.752 17.472 14.24 17.584 13.648 17.584ZM19.5102 11.86C19.7422 11.556 20.0582 11.3 20.4582 11.092C20.8582 10.884 21.3102 10.78 21.8142 10.78C22.3902 10.78 22.9142 10.924 23.3862 11.212C23.8662 11.492 24.2422 11.888 24.5142 12.4C24.7862 12.912 24.9222 13.5 24.9222 14.164C24.9222 14.828 24.7862 15.424 24.5142 15.952C24.2422 16.472 23.8662 16.88 23.3862 17.176C22.9142 17.464 22.3902 17.608 21.8142 17.608C21.3102 17.608 20.8622 17.508 20.4702 17.308C20.0782 17.1 19.7582 16.844 19.5102 16.54V20.644H18.1422V10.888H19.5102V11.86ZM23.5302 14.164C23.5302 13.708 23.4342 13.316 23.2422 12.988C23.0582 12.652 22.8102 12.4 22.4982 12.232C22.1942 12.056 21.8662 11.968 21.5142 11.968C21.1702 11.968 20.8422 12.056 20.5302 12.232C20.2262 12.408 19.9782 12.664 19.7862 13C19.6022 13.336 19.5102 13.732 19.5102 14.188C19.5102 14.644 19.6022 15.044 19.7862 15.388C19.9782 15.724 20.2262 15.98 20.5302 16.156C20.8422 16.332 21.1702 16.42 21.5142 16.42C21.8662 16.42 22.1942 16.332 22.4982 16.156C22.8102 15.972 23.0582 15.708 23.2422 15.364C23.4342 15.02 23.5302 14.62 23.5302 14.164ZM32.335 14.032C32.335 14.28 32.319 14.504 32.287 14.704H27.235C27.275 15.232 27.471 15.656 27.823 15.976C28.175 16.296 28.607 16.456 29.119 16.456C29.855 16.456 30.375 16.148 30.679 15.532H32.155C31.955 16.14 31.591 16.64 31.063 17.032C30.543 17.416 29.895 17.608 29.119 17.608C28.487 17.608 27.919 17.468 27.415 17.188C26.919 16.9 26.527 16.5 26.239 15.988C25.959 15.468 25.819 14.868 25.819 14.188C25.819 13.508 25.955 12.912 26.227 12.4C26.507 11.88 26.895 11.48 27.391 11.2C27.895 10.92 28.471 10.78 29.119 10.78C29.743 10.78 30.299 10.916 30.787 11.188C31.275 11.46 31.655 11.844 31.927 12.34C32.199 12.828 32.335 13.392 32.335 14.032ZM30.907 13.6C30.899 13.096 30.719 12.692 30.367 12.388C30.015 12.084 29.579 11.932 29.059 11.932C28.587 11.932 28.183 12.084 27.847 12.388C27.511 12.684 27.311 13.088 27.247 13.6H30.907ZM37.0173 10.78C37.5373 10.78 38.0013 10.888 38.4093 11.104C38.8253 11.32 39.1493 11.64 39.3813 12.064C39.6133 12.488 39.7293 13 39.7293 13.6V17.5H38.3733V13.804C38.3733 13.212 38.2253 12.76 37.9293 12.448C37.6333 12.128 37.2293 11.968 36.7173 11.968C36.2053 11.968 35.7973 12.128 35.4933 12.448C35.1973 12.76 35.0493 13.212 35.0493 13.804V17.5H33.6813V10.888H35.0493V11.644C35.2733 11.372 35.5573 11.16 35.9013 11.008C36.2533 10.856 36.6253 10.78 37.0173 10.78ZM41.0182 14.164C41.0182 13.5 41.1542 12.912 41.4262 12.4C41.7062 11.888 42.0822 11.492 42.5542 11.212C43.0342 10.924 43.5662 10.78 44.1502 10.78C44.5822 10.78 45.0062 10.876 45.4222 11.068C45.8462 11.252 46.1822 11.5 46.4302 11.812V8.62H47.8102V17.5H46.4302V16.504C46.2062 16.824 45.8942 17.088 45.4942 17.296C45.1022 17.504 44.6502 17.608 44.1382 17.608C43.5622 17.608 43.0342 17.464 42.5542 17.176C42.0822 16.88 41.7062 16.472 41.4262 15.952C41.1542 15.424 41.0182 14.828 41.0182 14.164ZM46.4302 14.188C46.4302 13.732 46.3342 13.336 46.1422 13C45.9582 12.664 45.7142 12.408 45.4102 12.232C45.1062 12.056 44.7782 11.968 44.4262 11.968C44.0742 11.968 43.7462 12.056 43.4422 12.232C43.1382 12.4 42.8902 12.652 42.6982 12.988C42.5142 13.316 42.4222 13.708 42.4222 14.164C42.4222 14.62 42.5142 15.02 42.6982 15.364C42.8902 15.708 43.1382 15.972 43.4422 16.156C43.7542 16.332 44.0822 16.42 44.4262 16.42C44.7782 16.42 45.1062 16.332 45.4102 16.156C45.7142 15.98 45.9582 15.724 46.1422 15.388C46.3342 15.044 46.4302 14.644 46.4302 14.188ZM49.151 14.164C49.151 13.5 49.287 12.912 49.559 12.4C49.839 11.888 50.215 11.492 50.687 11.212C51.167 10.924 51.695 10.78 52.271 10.78C52.791 10.78 53.243 10.884 53.627 11.092C54.019 11.292 54.331 11.544 54.563 11.848V10.888H55.943V17.5H54.563V16.516C54.331 16.828 54.015 17.088 53.615 17.296C53.215 17.504 52.759 17.608 52.247 17.608C51.679 17.608 51.159 17.464 50.687 17.176C50.215 16.88 49.839 16.472 49.559 15.952C49.287 15.424 49.151 14.828 49.151 14.164ZM54.563 14.188C54.563 13.732 54.467 13.336 54.275 13C54.091 12.664 53.847 12.408 53.543 12.232C53.239 12.056 52.911 11.968 52.559 11.968C52.207 11.968 51.879 12.056 51.575 12.232C51.271 12.4 51.023 12.652 50.831 12.988C50.647 13.316 50.555 13.708 50.555 14.164C50.555 14.62 50.647 15.02 50.831 15.364C51.023 15.708 51.271 15.972 51.575 16.156C51.887 16.332 52.215 16.42 52.559 16.42C52.911 16.42 53.239 16.332 53.543 16.156C53.847 15.98 54.091 15.724 54.275 15.388C54.467 15.044 54.563 14.644 54.563 14.188ZM59.1078 11.872C59.3398 11.552 59.6558 11.292 60.0558 11.092C60.4638 10.884 60.9158 10.78 61.4118 10.78C61.9958 10.78 62.5238 10.92 62.9958 11.2C63.4678 11.48 63.8398 11.88 64.1118 12.4C64.3838 12.912 64.5198 13.5 64.5198 14.164C64.5198 14.828 64.3838 15.424 64.1118 15.952C63.8398 16.472 63.4638 16.88 62.9838 17.176C62.5118 17.464 61.9878 17.608 61.4118 17.608C60.8998 17.608 60.4438 17.508 60.0438 17.308C59.6518 17.108 59.3398 16.852 59.1078 16.54V17.5H57.7398V8.62H59.1078V11.872ZM63.1278 14.164C63.1278 13.708 63.0318 13.316 62.8398 12.988C62.6558 12.652 62.4078 12.4 62.0958 12.232C61.7918 12.056 61.4638 11.968 61.1118 11.968C60.7678 11.968 60.4398 12.056 60.1278 12.232C59.8238 12.408 59.5758 12.664 59.3838 13C59.1998 13.336 59.1078 13.732 59.1078 14.188C59.1078 14.644 59.1998 15.044 59.3838 15.388C59.5758 15.724 59.8238 15.98 60.1278 16.156C60.4398 16.332 60.7678 16.42 61.1118 16.42C61.4638 16.42 61.7918 16.332 62.0958 16.156C62.4078 15.972 62.6558 15.708 62.8398 15.364C63.0318 15.02 63.1278 14.62 63.1278 14.164ZM67.2407 8.62V17.5H65.8727V8.62H67.2407ZM75.0967 14.032C75.0967 14.28 75.0807 14.504 75.0487 14.704H69.9967C70.0367 15.232 70.2327 15.656 70.5847 15.976C70.9367 16.296 71.3687 16.456 71.8807 16.456C72.6167 16.456 73.1367 16.148 73.4407 15.532H74.9167C74.7167 16.14 74.3527 16.64 73.8247 17.032C73.3047 17.416 72.6567 17.608 71.8807 17.608C71.2487 17.608 70.6807 17.468 70.1767 17.188C69.6807 16.9 69.2887 16.5 69.0007 15.988C68.7207 15.468 68.5807 14.868 68.5807 14.188C68.5807 13.508 68.7167 12.912 68.9887 12.4C69.2687 11.88 69.6567 11.48 70.1527 11.2C70.6567 10.92 71.2327 10.78 71.8807 10.78C72.5047 10.78 73.0607 10.916 73.5487 11.188C74.0367 11.46 74.4167 11.844 74.6887 12.34C74.9607 12.828 75.0967 13.392 75.0967 14.032ZM73.6687 13.6C73.6607 13.096 73.4807 12.692 73.1287 12.388C72.7767 12.084 72.3407 11.932 71.8207 11.932C71.3487 11.932 70.9447 12.084 70.6087 12.388C70.2727 12.684 70.0727 13.088 70.0087 13.6H73.6687Z" fill="#00952A"/>
</svg>
