<svg width="20" height="21" viewBox="0 0 20 21" fill="none" xmlns="http://www.w3.org/2000/svg">
<rect y="0.5" width="20" height="20" rx="10" fill="#D9DBE1"/>
<path d="M7.68196 13.33C8.57796 12.5553 9.28263 11.9207 9.79596 11.426C10.3186 10.922 10.7526 10.3993 11.098 9.858C11.4433 9.31667 11.616 8.77533 11.616 8.234C11.616 7.674 11.4806 7.23533 11.21 6.918C10.9486 6.60067 10.5333 6.442 9.96396 6.442C9.41329 6.442 8.98396 6.61933 8.67596 6.974C8.37729 7.31933 8.21863 7.786 8.19996 8.374H6.65996C6.68796 7.31 7.00529 6.498 7.61196 5.938C8.22796 5.36867 9.00729 5.084 9.94996 5.084C10.9673 5.084 11.7606 5.364 12.33 5.924C12.9086 6.484 13.198 7.23067 13.198 8.164C13.198 8.836 13.0253 9.48467 12.68 10.11C12.344 10.726 11.938 11.2813 11.462 11.776C10.9953 12.2613 10.398 12.826 9.66996 13.47L9.03996 14.03H13.478V15.36H6.67396V14.198L7.68196 13.33Z" fill="#71798E"/>
</svg>
