<svg width="20" height="21" viewBox="0 0 20 21" fill="none" xmlns="http://www.w3.org/2000/svg">
<rect y="0.5" width="20" height="20" rx="10" fill="#D9DBE1"/>
<path d="M6.65575 7.814C6.71175 6.946 7.04308 6.26933 7.64975 5.784C8.26575 5.29867 9.04975 5.056 10.0018 5.056C10.6551 5.056 11.2198 5.17267 11.6958 5.406C12.1718 5.63933 12.5311 5.95667 12.7738 6.358C13.0164 6.75933 13.1378 7.212 13.1378 7.716C13.1378 8.29467 12.9838 8.78933 12.6758 9.2C12.3678 9.61067 11.9991 9.886 11.5698 10.026V10.082C12.1204 10.25 12.5498 10.558 12.8578 11.006C13.1658 11.4447 13.3198 12.0093 13.3198 12.7C13.3198 13.2507 13.1938 13.7407 12.9418 14.17C12.6898 14.5993 12.3164 14.94 11.8218 15.192C11.3271 15.4347 10.7344 15.556 10.0438 15.556C9.03575 15.556 8.20508 15.2993 7.55175 14.786C6.90775 14.2633 6.56242 13.5167 6.51575 12.546H8.05575C8.09308 13.0407 8.28442 13.4467 8.62975 13.764C8.97508 14.072 9.44175 14.226 10.0298 14.226C10.5991 14.226 11.0378 14.072 11.3458 13.764C11.6538 13.4467 11.8078 13.0407 11.8078 12.546C11.8078 11.8927 11.5978 11.4307 11.1778 11.16C10.7671 10.88 10.1324 10.74 9.27375 10.74H8.90975V9.424H9.28775C10.0438 9.41467 10.6178 9.28867 11.0098 9.046C11.4111 8.80333 11.6118 8.42067 11.6118 7.898C11.6118 7.45 11.4671 7.09533 11.1778 6.834C10.8884 6.56333 10.4778 6.428 9.94575 6.428C9.42308 6.428 9.01708 6.56333 8.72775 6.834C8.43842 7.09533 8.26575 7.422 8.20975 7.814H6.65575Z" fill="#71798E"/>
</svg>
